<svg width="31" height="30" viewBox="0 0 31 30" fill="#000000" xmlns="http://www.w3.org/2000/svg">
<path d="M28.5976 7.79551C26.3489 4.79728 21.4018 3.29816 17.0544 5.99646C17.5041 4.04772 18.5535 3.1482 20.2026 2.99823C21.1021 2.99823 21.7017 2.24867 21.5518 1.34915C21.402 0.599593 20.6524 0 19.9029 0C16.455 0.299909 14.3562 2.6983 13.9064 6.14637C9.40908 3.29811 4.462 4.79722 2.21333 7.79546C0.564246 9.89416 0.114618 12.7424 0.564246 16.0406C1.61352 21.8871 6.11097 29.9824 11.6577 29.9824C12.5572 29.9824 13.7564 29.6825 14.8059 29.2328C15.1058 29.0829 15.5555 29.0829 16.0051 29.2328C16.9046 29.6825 17.6542 29.8324 18.7034 29.9824C24.2501 30.432 29.1972 22.187 30.2466 16.0406C30.6964 12.7424 30.2466 9.89422 28.5975 7.79546L28.5976 7.79551ZM27.2485 15.441C26.3489 20.6879 22.1515 27.1341 19.0033 26.8343C18.4037 26.8343 17.8041 26.6843 17.3542 26.3846C16.155 25.785 14.8056 25.785 13.6064 26.3846C13.0069 26.6843 12.4073 26.8343 11.9576 26.9842C8.65942 27.2841 4.61191 20.8378 3.56253 15.5909C3.11288 13.1923 3.56253 11.0936 4.61202 9.74439C6.11113 7.79565 9.55899 6.74616 12.7072 8.99483C14.3563 10.194 16.605 10.0443 18.1041 8.99483C21.2523 6.74616 24.7002 7.79565 26.1993 9.74439C27.2486 11.0935 27.6984 13.0426 27.2486 15.441L27.2485 15.441Z" />
<path d="M9.40892 14.5415C9.40892 13.642 8.5094 13.1921 7.75984 13.1921C6.86032 13.3421 6.41069 14.2416 6.56066 14.9912C7.16025 18.589 9.25896 22.1869 10.908 23.5361C11.5076 23.9858 12.5571 23.9858 13.0067 23.2362C13.4564 22.6366 13.4564 21.5872 12.7068 21.1375C11.9575 20.388 10.0085 17.5397 9.40889 14.5414L9.40892 14.5415Z" />
</svg>
