<svg width="132" height="132" viewBox="0 0 132 132" fill="none" xmlns="http://www.w3.org/2000/svg">
<circle cx="66" cy="66" r="64.5" fill="#121212" stroke="url(#paint0_linear_1794_2315)" stroke-width="3"/>
<path d="M66 33C68.8132 33 71.5112 34.1208 73.5004 36.1158C75.4896 38.1109 76.6071 40.8167 76.6071 43.6382V64.9145C76.6071 67.7359 75.4896 70.4417 73.5004 72.4368C71.5112 74.4318 68.8132 75.5526 66 75.5526C63.1868 75.5526 60.4888 74.4318 58.4996 72.4368C56.5104 70.4417 55.3929 67.7359 55.3929 64.9145V43.6382C55.3929 40.8167 56.5104 38.1109 58.4996 36.1158C60.4888 34.1208 63.1868 33 66 33ZM90.75 64.9145C90.75 77.432 81.5218 87.7511 69.5357 89.4886V100.375H62.4643V89.4886C50.4782 87.7511 41.25 77.432 41.25 64.9145H48.3214C48.3214 69.6168 50.184 74.1266 53.4994 77.4517C56.8147 80.7767 61.3114 82.6447 66 82.6447C70.6886 82.6447 75.1853 80.7767 78.5006 77.4517C81.816 74.1266 83.6786 69.6168 83.6786 64.9145H90.75Z" fill="white"/>
<defs>
<linearGradient id="paint0_linear_1794_2315" x1="66" y1="0" x2="66" y2="132" gradientUnits="userSpaceOnUse">
<stop stop-color="#2E93F2"/>
<stop offset="1" stop-color="#022D55"/>
</linearGradient>
</defs>
</svg>
