<svg width="60" height="60" viewBox="0 0 60 60" fill="none" xmlns="http://www.w3.org/2000/svg">
<circle cx="30" cy="30" r="29" stroke="#2E91F0" stroke-width="2"/>
<path d="M29.3479 10.4346C31.0529 10.4346 32.688 11.1072 33.8936 12.3045C35.0992 13.5018 35.7765 15.1258 35.7765 16.819V29.5879C35.7765 31.2811 35.0992 32.9051 33.8936 34.1024C32.688 35.2997 31.0529 35.9723 29.3479 35.9723C27.6429 35.9723 26.0078 35.2997 24.8022 34.1024C23.5966 32.9051 22.9193 31.2811 22.9193 29.5879V16.819C22.9193 15.1258 23.5966 13.5018 24.8022 12.3045C26.0078 11.1072 27.6429 10.4346 29.3479 10.4346ZM44.3479 29.5879C44.3479 37.1002 38.755 43.2932 31.4908 44.3359V50.8694H27.205V44.3359C19.9408 43.2932 14.3479 37.1002 14.3479 29.5879H18.6336C18.6336 32.41 19.7624 35.1165 21.7718 37.112C23.7811 39.1075 26.5063 40.2286 29.3479 40.2286C32.1895 40.2286 34.9147 39.1075 36.924 37.112C38.9334 35.1165 40.0622 32.41 40.0622 29.5879H44.3479Z" fill="white"/>
</svg>
