<svg width="47" height="31" viewBox="0 0 47 31" fill="none" xmlns="http://www.w3.org/2000/svg">
<path d="M2.42187 0C1.08431 0 0 1.08431 0 2.42187C0 3.75944 1.08431 4.84375 2.42187 4.84375H44.5781C45.9157 4.84375 47 3.75944 47 2.42187C47 1.08431 45.9157 0 44.5781 0H2.42187ZM2.42187 13.0781C1.08431 13.0781 0 14.1624 0 15.5C0 16.8376 1.08431 17.9219 2.42187 17.9219H44.5781C45.9157 17.9219 47 16.8376 47 15.5C47 14.1624 45.9157 13.0781 44.5781 13.0781H2.42187ZM2.42187 26.1562C1.08431 26.1562 0 27.2406 0 28.5781C0 29.9157 1.08431 31 2.42187 31H44.5781C45.9157 31 47 29.9157 47 28.5781C47 27.2406 45.9157 26.1562 44.5781 26.1562H2.42187Z" fill="white"/>
</svg>
