<svg width="46" height="30" viewBox="0 0 46 30" fill="none" xmlns="http://www.w3.org/2000/svg">
<path d="M39.3718 0H6.59329C3.29669 0 0.612076 2.68461 0.612076 5.98121V24.0188C0.612076 27.3154 3.29669 30 6.59329 30H39.4189C42.7155 30 45.4001 27.3154 45.4001 24.0188L45.3997 5.98121C45.3528 2.68461 42.6682 0.000336853 39.3715 0.000336853L39.3718 0ZM42.3859 23.9716C42.3859 25.6201 41.0672 26.9857 39.3718 26.9857H6.59329C4.94478 26.9857 3.57918 25.667 3.57918 23.9716V5.98113C3.57918 4.33262 4.89785 2.96702 6.59329 2.96702H39.4189C41.0674 2.96702 42.433 4.28569 42.433 5.98113V23.9716H42.3859Z" />
<path d="M37.5821 6.73462H25.4786C24.678 6.73462 23.9714 7.39394 23.9714 8.24184C23.9714 9.08939 24.6307 9.74907 25.4786 9.74907L37.5821 9.74874C38.3827 9.74874 39.0893 9.08942 39.0893 8.24151C39.089 7.39396 38.4297 6.73463 37.5821 6.73463V6.73462Z" />
<path d="M37.5821 13.4694H25.4786C24.678 13.4694 23.9714 14.1287 23.9714 14.9766C23.9714 15.8241 24.6307 16.4838 25.4786 16.4838H37.5821C38.3827 16.4838 39.0893 15.8245 39.0893 14.9766C39.089 14.129 38.4297 13.4694 37.5821 13.4694Z" />
<path d="M37.5821 20.2511H25.4786C24.678 20.2511 23.9714 20.9104 23.9714 21.7583C23.9714 22.5589 24.6307 23.2655 25.4786 23.2655L37.5821 23.2652C38.3827 23.2652 39.0893 22.6059 39.0893 21.758C39.089 20.9104 38.4297 20.2511 37.5821 20.2511V20.2511Z" />
<path d="M17.5194 13.9402C18.2257 13.0927 18.6498 12.0092 18.6498 10.7848C18.6498 8.05331 16.4363 5.88708 13.7521 5.88708C11.0205 5.88708 8.85429 8.10057 8.85429 10.7848C8.85429 11.9622 9.27807 13.0926 9.98466 13.9402C8.00665 15.3058 6.64072 17.7549 6.64072 20.4865C6.64072 21.3341 6.97054 22.8413 9.32533 23.8305C10.5027 24.3016 12.1039 24.5841 13.7524 24.5841C18.0852 24.5841 20.8637 22.9829 20.8637 20.4868C20.8634 17.755 19.5447 15.3062 17.5194 13.9402V13.9402ZM11.8211 10.7848C11.8211 9.70174 12.716 8.85385 13.7521 8.85385C14.7882 8.85385 15.6831 9.74875 15.6831 10.7848C15.6831 11.868 14.7882 12.7158 13.7521 12.7158C12.716 12.7158 11.8211 11.868 11.8211 10.7848V10.7848ZM13.7517 21.6168C10.9258 21.6168 9.60723 20.7219 9.60723 20.4864C9.60723 17.8492 11.444 15.7299 13.7517 15.7299C16.0595 15.7299 17.8962 17.8491 17.8962 20.4864C17.8962 20.722 16.5775 21.6168 13.7517 21.6168V21.6168Z" />
</svg>
