<svg width="54" height="34" viewBox="0 0 54 34" fill="none" xmlns="http://www.w3.org/2000/svg">
<path d="M4.20976 31H37.0303C38.7812 31 40.4725 30.3642 41.7899 29.2109V29.2109C45.0781 26.3322 45.0781 21.2162 41.7899 18.3375V18.3375C40.4725 17.1841 38.7812 16.5484 37.0303 16.5484H9.87368C7.88098 16.5484 5.98936 15.671 4.70224 14.1498V14.1498C2.56523 11.6241 2.56523 7.92427 4.70224 5.39859V5.39859C5.98936 3.87736 7.88098 3 9.87368 3H21.4049" stroke="url(#paint0_linear_768_413)" stroke-width="5" stroke-linecap="round"/>
<path d="M29 3L35 3" stroke="url(#paint1_linear_768_413)" stroke-width="5" stroke-linecap="round"/>
<path d="M43 3H42" stroke="url(#paint2_linear_768_413)" stroke-width="5" stroke-linecap="round"/>
<defs>
<linearGradient id="paint0_linear_768_413" x1="26.5" y1="5.5" x2="23.523" y2="35.865" gradientUnits="userSpaceOnUse">
<stop offset="0.9999" stop-color="white"/>
<stop offset="1" stop-color="#D3A002"/>
</linearGradient>
<linearGradient id="paint1_linear_768_413" x1="32" y1="11" x2="32" y2="12" gradientUnits="userSpaceOnUse">
<stop stop-color="white"/>
<stop offset="1" stop-color="#D3A002"/>
</linearGradient>
<linearGradient id="paint2_linear_768_413" x1="42.5" y1="11" x2="42.5" y2="12" gradientUnits="userSpaceOnUse">
<stop stop-color="white"/>
<stop offset="1" stop-color="#D3A002"/>
</linearGradient>
</defs>
</svg>
