<svg width="13" height="17" viewBox="0 0 13 17" fill="none" xmlns="http://www.w3.org/2000/svg">
<path d="M6.5 0C7.23882 0 7.94737 0.2828 8.4698 0.786187C8.99222 1.28957 9.28571 1.97231 9.28571 2.68421V8.05263C9.28571 8.76453 8.99222 9.44727 8.4698 9.95066C7.94737 10.454 7.23882 10.7368 6.5 10.7368C5.76118 10.7368 5.05262 10.454 4.5302 9.95066C4.00778 9.44727 3.71429 8.76453 3.71429 8.05263V2.68421C3.71429 1.97231 4.00778 1.28957 4.5302 0.786187C5.05262 0.2828 5.76118 0 6.5 0ZM13 8.05263C13 11.2111 10.5764 13.8147 7.42857 14.2532V17H5.57143V14.2532C2.42357 13.8147 0 11.2111 0 8.05263H1.85714C1.85714 9.23913 2.3463 10.377 3.217 11.216C4.08771 12.055 5.26864 12.5263 6.5 12.5263C7.73136 12.5263 8.91229 12.055 9.783 11.216C10.6537 10.377 11.1429 9.23913 11.1429 8.05263H13Z" fill="#F2F2F2"/>
</svg>
