<svg width="82" height="60" viewBox="0 0 82 60" fill="none" xmlns="http://www.w3.org/2000/svg">
<path d="M16.9004 9.72973C14.7508 9.72973 12.7123 10.6917 11.3361 12.3554C9.09777 15.0616 9.09777 18.9925 11.3361 21.6986C12.7123 23.3624 14.7508 24.3243 16.9004 24.3243H64.2948C68.6311 24.3243 72.8166 25.9276 76.0575 28.83C83.9808 35.9257 83.9808 48.3986 76.0575 55.4943C72.8166 58.3968 68.6311 60 64.2948 60H6.82001C4.1532 60 1.99133 57.8219 1.99133 55.1351C1.99133 52.4483 4.1532 50.2703 6.82001 50.2703H64.2948C66.2659 50.2703 68.1683 49.5415 69.6415 48.2222C73.243 44.9969 73.243 39.3274 69.6415 36.1021C68.1683 34.7828 66.2659 34.0541 64.2948 34.0541H16.9004C11.8847 34.0541 7.12812 31.8095 3.91715 27.9275C-1.30572 21.6131 -1.30572 12.441 3.91715 6.12659C7.12812 2.24455 11.8847 0 16.9004 0H36.9993C39.6661 0 41.8279 2.17807 41.8279 4.86486C41.8279 7.55166 39.6661 9.72973 36.9993 9.72973H16.9004Z" fill="white"/>
<path d="M45.0471 4.86486C45.0471 2.17807 47.2089 0 49.8757 0H60.3379C63.0047 1.58167e-06 65.1666 2.17808 65.1666 4.86487C65.1666 7.55166 63.0047 9.72973 60.3379 9.72973L49.8757 9.72973C47.2089 9.72973 45.0471 7.55166 45.0471 4.86486Z" fill="white"/>
<path d="M68.3857 4.86486C68.3857 2.17807 70.5476 0 73.2144 0H74.0191C76.6859 0 78.8478 2.17807 78.8478 4.86486C78.8478 7.55166 76.6859 9.72973 74.0191 9.72973H73.2144C70.5476 9.72973 68.3857 7.55166 68.3857 4.86486Z" fill="white"/>
</svg>
