<svg width="32" height="36" viewBox="0 0 32 36" fill="none" xmlns="http://www.w3.org/2000/svg">
<path d="M27.3125 31.3933C21.0637 37.5362 10.9337 37.5354 4.68578 31.3919C1.24696 28.0104 -0.440824 23.2752 0.098967 18.5229C0.213766 17.6615 1.01736 17.0549 1.89322 17.1677C2.74548 17.2777 3.35733 18.03 3.27832 18.8716C2.48388 25.7818 7.53794 32.0174 14.5669 32.7983C21.5959 33.5791 27.9375 28.6103 28.7317 21.6994C29.5259 14.7886 24.4724 8.55367 17.4438 7.77279C14.6198 7.45904 11.7698 8.07756 9.34245 9.53106L14.6261 10.8582C15.4821 11.0737 15.9985 11.9304 15.7797 12.7722C15.5988 13.4679 14.9614 13.9548 14.2309 13.9553C14.097 13.9558 13.9637 13.9392 13.8341 13.9061L3.51662 11.3139L6.15321 1.16712C6.38146 0.327906 7.25847 -0.170668 8.1123 0.0537846C8.953 0.27476 9.45975 1.11556 9.25328 1.94665L8.03729 6.62444C15.7016 2.30062 25.4795 4.90419 29.8774 12.4396C33.4737 18.6019 32.4225 26.369 27.3128 31.3926L27.3125 31.3933Z" fill="#FFC107"/>
</svg>
