<svg width="35" height="30" viewBox="0 0 35 30" fill="none" xmlns="http://www.w3.org/2000/svg">
<path fill-rule="evenodd" clip-rule="evenodd" d="M28.829 4.11932C28.3919 5.90372 26.591 6.99629 24.8062 6.55894C23.0215 6.12187 21.9293 4.32094 22.3663 2.53619C22.8037 0.7515 24.6046 -0.340784 26.3893 0.0962753C28.1737 0.533627 29.2663 2.33457 28.8289 4.11925" />
<path fill-rule="evenodd" clip-rule="evenodd" d="M28.5483 8.03944C30.0509 8.54029 31.3031 8.79088 31.804 8.415C32.1795 8.28971 32.1795 7.41332 31.804 5.53519C31.3031 3.90737 33.8073 3.28123 34.183 4.90906C34.9344 8.0394 34.4335 9.79223 33.056 10.669C32.0543 11.2951 30.5518 11.1698 28.9239 10.669C28.0475 13.048 27.4214 14.8011 26.5449 18.6827L29.4247 20.9367C30.0508 21.4375 30.1762 22.314 29.6753 22.94L25.418 29.3257C24.4163 30.9535 21.912 29.3257 23.039 27.6979L26.5449 22.4389L25.2927 21.4372L23.5395 25.0684C23.164 25.8198 22.4126 26.0701 21.6614 25.8198L14.5243 22.8147C12.7711 22.0633 13.8981 19.4341 15.6513 20.0599L21.4112 22.5641L22.9137 19.4338C20.6597 17.6807 20.1589 17.0548 20.785 15.3017C20.9103 15.0511 21.1606 14.8008 21.1606 14.5503C21.6614 12.6721 22.1623 10.6688 22.1623 9.29125C20.0336 8.7904 18.1555 11.7954 18.0302 13.9242C18.0302 15.6773 15.526 15.552 15.526 13.9242C15.6513 10.5435 18.4058 6.41122 22.1623 6.41122C23.1639 6.66178 27.7969 7.5382 28.548 8.03904L28.5483 8.03944Z" />
<path d="M13.2724 15.6771C13.8985 15.6771 13.8985 16.5535 13.2724 16.5535H0.375636C-0.125212 16.5535 -0.125212 15.6771 0.375636 15.6771H13.2724Z" />
<path d="M11.394 22.3138C12.0201 22.3138 12.0201 23.0653 11.394 23.0653H1.50182C0.875695 23.0653 0.875695 22.3138 1.50182 22.3138H11.394Z" />
<path d="M11.394 8.91565C12.0201 8.91565 12.0201 9.79203 11.394 9.79203H1.50182C0.875695 9.79203 0.875695 8.91565 1.50182 8.91565H11.394Z" />
</svg>
