<svg width="21" height="18" viewBox="0 0 21 18" fill="none" xmlns="http://www.w3.org/2000/svg">
<path d="M20.6692 13.6481C20.774 13.7571 20.8572 13.8867 20.914 14.0294C20.9708 14.1721 21 14.3251 21 14.4796C21 14.6341 20.9708 14.787 20.914 14.9297C20.8572 15.0724 20.774 15.202 20.6692 15.3111L18.4195 17.6588C18.2072 17.8774 17.9209 18 17.6227 18C17.3244 18 17.0382 17.8774 16.8259 17.6588C16.721 17.5497 16.6378 17.4201 16.5811 17.2774C16.5243 17.1348 16.4951 16.9818 16.4951 16.8273C16.4951 16.6728 16.5243 16.5198 16.5811 16.3771C16.6378 16.2344 16.721 16.1049 16.8259 15.9958L17.154 15.6534H14.2575C13.9586 15.6527 13.6642 15.5779 13.3985 15.435C13.1328 15.2921 12.9035 15.0853 12.7296 14.8317L5.79299 4.69745H1.12485C0.826523 4.69745 0.540412 4.57378 0.329462 4.35364C0.118511 4.1335 0 3.83493 0 3.5236C0 3.21227 0.118511 2.9137 0.329462 2.69356C0.540412 2.47342 0.826523 2.34975 1.12485 2.34975H5.98984C6.28871 2.35043 6.58315 2.4253 6.84882 2.56817C7.1145 2.71105 7.34379 2.91783 7.51776 3.17144L14.4543 13.3057H17.154L16.8259 12.9633C16.6146 12.7428 16.4959 12.4437 16.4959 12.1319C16.4959 11.82 16.6146 11.5209 16.8259 11.3004C17.0372 11.0799 17.3238 10.956 17.6227 10.956C17.9215 10.956 18.2081 11.0799 18.4195 11.3004L20.6692 13.6481ZM8.47389 11.408C8.23128 11.2284 7.93036 11.1563 7.63699 11.2077C7.34361 11.259 7.08167 11.4295 6.90847 11.6819L5.79299 13.3057H1.12485C0.826523 13.3057 0.540412 13.4294 0.329462 13.6495C0.118511 13.8697 0 14.1682 0 14.4796C0 14.7909 0.118511 15.0895 0.329462 15.3096C0.540412 15.5298 0.826523 15.6534 1.12485 15.6534H5.98984C6.28871 15.6527 6.58315 15.5779 6.84882 15.435C7.1145 15.2921 7.34379 15.0853 7.51776 14.8317L8.73635 13.0514C8.90899 12.7967 8.97826 12.4811 8.92911 12.1733C8.87996 11.8656 8.71636 11.5905 8.47389 11.408ZM11.7735 6.59519C12.0161 6.77482 12.317 6.84685 12.6103 6.79551C12.9037 6.74418 13.1657 6.57367 13.3389 6.32129L14.4543 4.69745H17.154L16.8259 5.03983C16.721 5.14888 16.6378 5.27847 16.5811 5.42115C16.5243 5.56384 16.4951 5.71681 16.4951 5.87131C16.4951 6.0258 16.5243 6.17878 16.5811 6.32146C16.6378 6.46415 16.721 6.59373 16.8259 6.70279C17.0382 6.92143 17.3244 7.04403 17.6227 7.04403C17.9209 7.04403 18.2072 6.92143 18.4195 6.70279L20.6692 4.35508C20.774 4.24602 20.8572 4.11644 20.914 3.97376C20.9708 3.83107 21 3.6781 21 3.5236C21 3.3691 20.9708 3.21613 20.914 3.07344C20.8572 2.93076 20.774 2.80117 20.6692 2.69212L18.4195 0.344411C18.2081 0.123888 17.9215 -6.57208e-09 17.6227 0C17.3238 6.57208e-09 17.0372 0.123888 16.8259 0.344411C16.6146 0.564933 16.4959 0.864025 16.4959 1.17589C16.4959 1.48776 16.6146 1.78685 16.8259 2.00737L17.154 2.34975H14.2575C13.9586 2.35043 13.6642 2.4253 13.3985 2.56817C13.1328 2.71105 12.9035 2.91783 12.7296 3.17144L11.511 4.95179C11.3383 5.20652 11.2691 5.52208 11.3182 5.82984C11.3674 6.1376 11.531 6.41265 11.7735 6.59519Z" fill="#121212"/>
</svg>
