<svg width="370" height="189" viewBox="0 0 370 189" fill="none" xmlns="http://www.w3.org/2000/svg">
<path d="M210.125 46.221L228.35 24.8623L246.575 46.221V128.932" stroke="#CCDDE2" stroke-miterlimit="10"/>
<g opacity="0.81">
<path opacity="0.81" d="M239.836 49.791H234.939V54.5509H239.836V49.791Z" stroke="#CCDDE2" stroke-miterlimit="10"/>
<path opacity="0.81" d="M230.575 49.791H225.678V54.5509H230.575V49.791Z" stroke="#CCDDE2" stroke-miterlimit="10"/>
<path opacity="0.81" d="M221.316 49.791H216.419V54.5509H221.316V49.791Z" stroke="#CCDDE2" stroke-miterlimit="10"/>
</g>
<g opacity="0.46">
<path opacity="0.46" d="M239.836 60.8467H234.938V65.6066H239.836V60.8467Z" stroke="#CCDDE2" stroke-miterlimit="10"/>
<path opacity="0.46" d="M230.575 60.8467H225.678V65.6066H230.575V60.8467Z" stroke="#CCDDE2" stroke-miterlimit="10"/>
<path opacity="0.46" d="M221.316 60.8467H216.419V65.6066H221.316V60.8467Z" stroke="#CCDDE2" stroke-miterlimit="10"/>
</g>
<g opacity="0.25">
<path opacity="0.25" d="M239.836 72.3691H234.938V77.129H239.836V72.3691Z" stroke="#CCDDE2" stroke-miterlimit="10"/>
<path opacity="0.25" d="M230.575 72.3691H225.678V77.129H230.575V72.3691Z" stroke="#CCDDE2" stroke-miterlimit="10"/>
<path opacity="0.25" d="M221.316 72.3691H216.419V77.129H221.316V72.3691Z" stroke="#CCDDE2" stroke-miterlimit="10"/>
</g>
<g opacity="0.25">
<path opacity="0.25" d="M239.836 82.2686H234.938V87.0284H239.836V82.2686Z" stroke="#CCDDE2" stroke-miterlimit="10"/>
<path opacity="0.25" d="M230.575 82.2686H225.678V87.0284H230.575V82.2686Z" stroke="#CCDDE2" stroke-miterlimit="10"/>
<path opacity="0.25" d="M221.316 82.2686H216.419V87.0284H221.316V82.2686Z" stroke="#CCDDE2" stroke-miterlimit="10"/>
</g>
<path d="M253.355 115.967V15.6182H300.653V129.124" stroke="#CCDDE2" stroke-miterlimit="10"/>
<path d="M258.056 24.8627V30.7349H264.097V19.957H258.056V24.8627ZM259.047 20.9209H263.103V24.8627H259.047V20.9209ZM259.047 25.8293H263.103V29.7603H259.047V25.8293Z" fill="#D7E8F0"/>
<path d="M268.711 24.8627V30.7349H274.75V19.957H268.711V24.8627ZM269.703 20.9209H273.758V24.8627H269.703V20.9209ZM269.703 25.8293H273.758V29.7603H269.703V25.8293Z" fill="#D7E8F0"/>
<path d="M279.072 24.8627V30.7349H285.111V19.957H279.072V24.8627ZM280.064 20.9209H284.119V24.8627H280.064V20.9209ZM280.064 25.8293H284.119V29.7603H280.064V25.8293Z" fill="#D7E8F0"/>
<path d="M288.825 19.957V30.7349H294.864V19.957H288.825ZM293.872 29.7603H289.817V25.8293H293.872V29.7603ZM293.872 24.8546H289.817V20.9128H293.872V24.8546Z" fill="#D7E8F0"/>
<path d="M258.056 39.3608V45.233H264.097V34.4551H258.056V39.3608ZM259.047 35.4189H263.103V39.3608H259.047V35.4189ZM259.047 40.3246H263.103V44.2691H259.047V40.3246Z" fill="#D7E8F0"/>
<path d="M268.711 39.3608V45.233H274.75V34.4551H268.711V39.3608ZM269.703 35.4189H273.758V39.3608H269.703V35.4189ZM269.703 40.3246H273.758V44.2691H269.703V40.3246Z" fill="#D7E8F0"/>
<path d="M279.072 39.3608V45.233H285.111V34.4551H279.072V39.3608ZM280.064 35.4189H284.119V39.3608H280.064V35.4189ZM280.064 40.3246H284.119V44.2691H280.064V40.3246Z" fill="#D7E8F0"/>
<path d="M288.825 39.3608V45.233H294.864V34.4551H288.825V39.3608ZM289.817 35.4189H293.872V39.3608H289.817V35.4189ZM289.817 40.3246H293.872V44.2691H289.817V40.3246Z" fill="#D7E8F0"/>
<path d="M258.056 53.8588V59.7283H264.097V48.9531H258.056V53.8588ZM259.047 49.917H263.103V53.8588H259.047V49.917ZM259.047 54.8254H263.103V58.7672H259.047V54.8254Z" fill="#D7E8F0"/>
<path d="M268.711 53.8588V59.7283H274.75V48.9531H268.711V53.8588ZM269.703 49.917H273.758V53.8588H269.703V49.917ZM269.703 54.8254H273.758V58.7672H269.703V54.8254Z" fill="#D7E8F0"/>
<path d="M279.072 53.8588V59.7283H285.111V48.9531H279.072V53.8588ZM280.064 49.917H284.119V53.8588H280.064V49.917ZM280.064 54.8254H284.119V58.7672H280.064V54.8254Z" fill="#D7E8F0"/>
<path d="M288.825 53.8588V59.7283H294.864V48.9531H288.825V53.8588ZM289.817 49.917H293.872V53.8588H289.817V49.917ZM289.817 54.8254H293.872V58.7672H289.817V54.8254Z" fill="#D7E8F0"/>
<path d="M258.056 68.3677V74.2372H264.097V63.4512H258.056V68.3677ZM259.047 64.4258H263.103V68.3677H259.047V64.4258ZM259.047 69.3315H263.103V73.2733H259.047V69.3315Z" fill="#D7E8F0"/>
<path d="M268.711 68.3677V74.2372H274.75V63.4512H268.711V68.3677ZM269.703 64.4258H273.758V68.3677H269.703V64.4258ZM269.703 69.3315H273.758V73.2733H269.703V69.3315Z" fill="#D7E8F0"/>
<path d="M279.072 68.3677V74.2372H285.111V63.4512H279.072V68.3677ZM280.064 64.4258H284.119V68.3677H280.064V64.4258ZM280.064 69.3315H284.119V73.2733H280.064V69.3315Z" fill="#D7E8F0"/>
<path d="M288.825 68.3677V74.2372H294.864V63.4512H288.825V68.3677ZM289.817 64.4258H293.872V68.3677H289.817V64.4258ZM289.817 69.3315H293.872V73.2733H289.817V69.3315Z" fill="#D7E8F0"/>
<path d="M258.056 82.8549V88.7271H264.097V77.9492H258.056V82.8549ZM259.047 78.9158H263.103V82.8549H259.047V78.9158ZM259.047 83.8214H263.103V87.7633H259.047V83.8214Z" fill="#D7E8F0"/>
<path d="M268.711 82.8549V88.7271H274.75V77.9492H268.711V82.8549ZM269.703 78.9158H273.758V82.8549H269.703V78.9158ZM269.703 83.8214H273.758V87.7633H269.703V83.8214Z" fill="#D7E8F0"/>
<path d="M279.072 82.8549V88.7271H285.111V77.9492H279.072V82.8549ZM280.064 78.9158H284.119V82.8549H280.064V78.9158ZM280.064 83.8214H284.119V87.7633H280.064V83.8214Z" fill="#D7E8F0"/>
<path d="M288.825 82.8549V88.7271H294.864V77.9492H288.825V82.8549ZM289.817 78.9158H293.872V82.8549H289.817V78.9158ZM289.817 83.8214H293.872V87.7633H289.817V83.8214Z" fill="#D7E8F0"/>
<path d="M145.097 129.154V83.7174C145.097 77.3832 142.82 71.2483 138.659 66.3734C137.925 65.5137 137.005 64.8218 135.965 64.3468C134.925 63.8719 133.79 63.626 132.641 63.626C131.491 63.626 130.356 63.8719 129.316 64.3468C128.276 64.8218 127.356 65.5137 126.622 66.3734C122.461 71.2483 120.184 77.3832 120.184 83.7174V129.237" stroke="#CCDDE2" stroke-miterlimit="10"/>
<g opacity="0.81">
<path opacity="0.81" d="M124.792 79.6039H128.139V76.3506H124.792V79.6039Z" stroke="#CCDDE2" stroke-miterlimit="10"/>
<path opacity="0.81" d="M131.117 79.6039H134.464V76.3506H131.117V79.6039Z" stroke="#CCDDE2" stroke-miterlimit="10"/>
<path opacity="0.81" d="M137.445 79.6039H140.792V76.3506H137.445V79.6039Z" stroke="#CCDDE2" stroke-miterlimit="10"/>
</g>
<g opacity="0.46">
<path opacity="0.46" d="M124.792 87.1615H128.139V83.9082H124.792V87.1615Z" stroke="#CCDDE2" stroke-miterlimit="10"/>
<path opacity="0.46" d="M131.116 87.1615H134.463V83.9082H131.116V87.1615Z" stroke="#CCDDE2" stroke-miterlimit="10"/>
<path opacity="0.46" d="M137.444 87.1615H140.792V83.9082H137.444V87.1615Z" stroke="#CCDDE2" stroke-miterlimit="10"/>
</g>
<g opacity="0.25">
<path opacity="0.25" d="M124.792 95.0375H128.139V91.7842H124.792V95.0375Z" stroke="#CCDDE2" stroke-miterlimit="10"/>
<path opacity="0.25" d="M131.117 95.0375H134.464V91.7842H131.117V95.0375Z" stroke="#CCDDE2" stroke-miterlimit="10"/>
<path opacity="0.25" d="M137.445 95.0375H140.792V91.7842H137.445V95.0375Z" stroke="#CCDDE2" stroke-miterlimit="10"/>
</g>
<g opacity="0.25">
<path opacity="0.25" d="M124.792 101.803H128.139V98.5498H124.792V101.803Z" stroke="#CCDDE2" stroke-miterlimit="10"/>
<path opacity="0.25" d="M131.117 101.803H134.464V98.5498H131.117V101.803Z" stroke="#CCDDE2" stroke-miterlimit="10"/>
<path opacity="0.25" d="M137.445 101.803H140.792V98.5498H137.445V101.803Z" stroke="#CCDDE2" stroke-miterlimit="10"/>
</g>
<path d="M83.2246 129.36V52.9971H115.552V129.252" stroke="#CCDDE2" stroke-miterlimit="10"/>
<path d="M112.339 59.3161V63.3281H108.211V55.9629H112.339V59.3161ZM111.659 56.6163H108.889V59.3161H111.667L111.659 56.6163ZM111.659 59.9695H108.889V62.6694H111.667L111.659 59.9695Z" fill="#D7E8F0"/>
<path d="M105.056 59.3161V63.3281H100.928V55.9629H105.056V59.3161ZM104.378 56.6163H101.6V59.3161H104.378V56.6163ZM104.378 59.9695H101.6V62.6694H104.378V59.9695Z" fill="#D7E8F0"/>
<path d="M97.9749 59.3161V63.3281H93.8472V55.9629H97.9749V59.3161ZM97.2972 56.6163H94.5194V59.3161H97.2972V56.6163ZM97.2972 59.9695H94.5194V62.6694H97.2972V59.9695Z" fill="#D7E8F0"/>
<path d="M91.3084 55.9629V63.3281H87.1807V55.9629H91.3084ZM87.8584 62.6694H90.6362V59.9695H87.8584V62.6694ZM87.8584 59.3161H90.6362V56.6163H87.8584V59.3161Z" fill="#D7E8F0"/>
<path d="M112.339 69.2236V73.2275H108.211V65.873H112.339V69.2236ZM111.659 66.5237H108.889V69.2236H111.667L111.659 66.5237ZM111.659 69.8769H108.889V72.5768H111.667L111.659 69.8769Z" fill="#D7E8F0"/>
<path d="M105.056 69.2236V73.2275H100.928V65.873H105.056V69.2236ZM104.378 66.5237H101.6V69.2236H104.378V66.5237ZM104.378 69.8769H101.6V72.5768H104.378V69.8769Z" fill="#D7E8F0"/>
<path d="M97.9749 69.2236V73.2275H93.8472V65.873H97.9749V69.2236ZM97.2972 66.5237H94.5194V69.2236H97.2972V66.5237ZM97.2972 69.8769H94.5194V72.5768H97.2972V69.8769Z" fill="#D7E8F0"/>
<path d="M91.3084 69.2236V73.2275H87.1807V65.873H91.3084V69.2236ZM90.6307 66.5237H87.8529V69.2236H90.6307V66.5237ZM90.6307 69.8769H87.8529V72.5768H90.6307V69.8769Z" fill="#D7E8F0"/>
<path d="M112.339 79.1364V83.1485H108.211V75.7832H112.339V79.1364ZM111.659 76.4366H108.889V79.1364H111.667L111.659 76.4366ZM111.659 79.7898H108.889V82.4897H111.667L111.659 79.7898Z" fill="#D7E8F0"/>
<path d="M105.056 79.1364V83.1485H100.928V75.7832H105.056V79.1364ZM104.378 76.4366H101.6V79.1364H104.378V76.4366ZM104.378 79.7898H101.6V82.4897H104.378V79.7898Z" fill="#D7E8F0"/>
<path d="M97.9749 79.1364V83.1485H93.8472V75.7832H97.9749V79.1364ZM97.2972 76.4366H94.5194V79.1364H97.2972V76.4366ZM97.2972 79.7898H94.5194V82.4897H97.2972V79.7898Z" fill="#D7E8F0"/>
<path d="M91.3084 79.1364V83.1485H87.1807V75.7832H91.3084V79.1364ZM90.6307 76.4366H87.8529V79.1364H90.6307V76.4366ZM90.6307 79.7898H87.8529V82.4897H90.6307V79.7898Z" fill="#D7E8F0"/>
<path d="M112.339 89.0427V93.0547H108.211V85.6895H112.339V89.0427ZM111.659 86.3428H108.889V89.0427H111.667L111.659 86.3428ZM111.667 89.6961H108.889V92.396H111.667V89.6961Z" fill="#D7E8F0"/>
<path d="M105.056 89.0427V93.0547H100.928V85.6895H105.056V89.0427ZM104.378 86.3428H101.6V89.0427H104.378V86.3428ZM104.378 89.6961H101.6V92.396H104.378V89.6961Z" fill="#D7E8F0"/>
<path d="M97.9749 89.0427V93.0547H93.8472V85.6895H97.9749V89.0427ZM97.2972 86.3428H94.5194V89.0427H97.2972V86.3428ZM97.2972 89.6961H94.5194V92.396H97.2972V89.6961Z" fill="#D7E8F0"/>
<path d="M91.3084 89.0427V93.0547H87.1807V85.6895H91.3084V89.0427ZM90.6307 86.3428H87.8529V89.0427H90.6307V86.3428ZM90.6307 89.6961H87.8529V92.396H90.6307V89.6961Z" fill="#D7E8F0"/>
<path d="M112.339 98.9519V102.964H108.211V95.5986H112.339V98.9519ZM111.659 96.252H108.889V98.9519H111.667L111.659 96.252ZM111.659 99.6052H108.889V102.305H111.667L111.659 99.6052Z" fill="#D7E8F0"/>
<path d="M105.056 98.9519V102.964H100.928V95.5986H105.056V98.9519ZM104.378 96.252H101.6V98.9519H104.378V96.252ZM104.378 99.6052H101.6V102.305H104.378V99.6052Z" fill="#D7E8F0"/>
<path d="M97.9749 98.9519V102.964H93.8472V95.5986H97.9749V98.9519ZM97.2972 96.252H94.5194V98.9519H97.2972V96.252ZM97.2972 99.6052H94.5194V102.305H97.2972V99.6052Z" fill="#D7E8F0"/>
<path d="M91.3084 98.9519V102.964H87.1807V95.5986H91.3084V98.9519ZM90.6307 96.252H87.8529V98.9519H90.6307V96.252ZM90.6307 99.6052H87.8529V102.305H90.6307V99.6052Z" fill="#D7E8F0"/>
<path d="M167.239 45.9736C167.239 45.9736 166.453 56.3682 154.605 55.407C154.605 55.407 158.755 65.7502 161.733 67.5807L176.694 76.7846L180.278 60.5017L167.239 45.9736Z" fill="#2E2E2E"/>
<path d="M154.556 85.1069L123.206 129.231L88.6333 129.347V128.731C88.6341 127.295 89.1961 125.912 90.2058 124.862C91.2155 123.813 92.5975 123.175 94.0722 123.078L103.611 122.46L131.428 73.6513C132.741 71.2744 134.548 69.1884 136.734 67.525C138.919 65.8617 141.436 64.657 144.125 63.9877C146.814 63.3184 149.617 63.1985 152.356 63.6359C155.096 64.0735 157.712 65.0584 160.039 66.5291L160.278 66.6802L176.289 76.5186L164.928 103.129L150.503 90.8279" fill="white"/>
<path d="M260.58 110.809C257.694 118.617 252.414 119.883 246.239 119.481C243.008 115.366 239.18 109.761 236.086 105.573C232.489 100.687 228.888 95.807 225.28 90.9348C224.361 89.682 223.441 88.4374 222.503 87.1846V105.957C222.506 106.926 222.44 107.894 222.305 108.854C204.711 123.468 179.58 105.131 176.153 102.482C175.894 102.29 175.766 102.182 175.766 102.182C174.125 90.6189 175.897 81.874 176.275 75.262C176.791 66.428 178.475 63.6201 179.969 60.9041L180.589 59.3813C181.75 57.2781 181.7 56.7544 181.855 56.6545L181.808 56.2684C181.808 56.2684 182.411 55.6096 182.411 55.5934C185.805 50.1478 188.419 45.6039 194.039 42.3289C192.094 43.7221 190.75 47.0969 192.811 48.9409C195.208 51.0873 198.472 48.5494 200.439 47.051C202.952 45.2067 205.158 42.9963 206.978 40.4984C207.553 39.6884 208.275 38.8272 208.164 37.7985C212.236 37.7418 215.68 39.1485 219.88 41.5082C225.191 44.4969 229.425 49.0057 232.314 54.2759L260.58 110.809Z" fill="#2E2E2E"/>
<path d="M209.833 27.13V27.2056C209.833 28.781 209.189 30.2916 208.043 31.4056C206.897 32.5195 205.343 33.1454 203.722 33.1454C202.683 33.15 201.661 32.8902 200.758 32.3921C200.498 32.2609 200.251 32.1073 200.019 31.9331C199.924 31.8578 199.85 31.7611 199.801 31.6518C199.753 31.5422 199.733 31.4231 199.742 31.3043C199.751 31.1858 199.79 31.0708 199.855 30.9698C199.919 30.8686 200.008 30.7841 200.114 30.7236C201.366 29.9892 202.544 28.9201 202.966 27.5917C203.095 27.184 203.139 26.7553 203.094 26.3309C203.057 25.7887 202.875 25.2658 202.564 24.8141C202.253 24.3624 201.826 23.9982 201.325 23.7579C201.167 23.6999 201.003 23.6607 200.836 23.6418C200.364 23.5662 199.725 23.5743 199.58 23.9118C200.325 22.3027 200.504 20.4997 200.089 18.782C199.83 17.7161 199.325 16.7218 198.611 15.8743C198.621 16.1799 198.562 16.4836 198.438 16.7644C198.313 17.0452 198.126 17.2958 197.891 17.4982C197.655 17.7007 197.376 17.85 197.075 17.9356C196.773 18.0212 196.455 18.0412 196.144 17.9937C193.73 17.7237 193.464 15.4396 193.464 15.4396C193.464 15.4396 193.447 15.4639 193.447 15.4801C192.175 17.9532 189.091 17.7777 186.986 16.4655C186.24 16.0149 185.602 15.4147 185.114 14.7052C184.708 12.0323 187.15 9.67805 189.744 9.51875C189.941 7.85833 191.341 6.17091 193.041 6.17091C193.632 6.16929 194.213 6.32184 194.722 6.61234C195.232 6.90285 195.652 7.32106 195.939 7.82323C195.983 7.9018 196.023 7.98306 196.058 8.06622C196.83 7.14826 198.053 6.17631 199.264 6.17631C200.112 6.17739 200.94 6.4355 201.63 6.91446C202.321 7.39341 202.842 8.06974 203.119 8.84919C203.119 8.7304 204.23 8.34701 204.339 8.30922C204.79 8.18178 205.258 8.11995 205.728 8.12562C206.546 8.14641 207.347 8.36672 208.055 8.7663C208.764 9.16588 209.358 9.73177 209.783 10.4124C209.826 10.6495 209.846 10.8898 209.844 11.1306C209.845 11.8501 209.671 12.5596 209.336 13.2014C209.717 13.3391 210.068 13.5462 210.369 13.8116C211.017 14.3618 211.416 15.1375 211.48 15.9715C211.48 16.0552 211.48 16.1389 211.48 16.2225C211.482 16.8527 211.288 17.4688 210.925 17.991C211.324 18.1378 211.703 18.3349 212.05 18.5768C213.085 19.3018 213.783 20.3941 213.994 21.6169C214.041 21.8845 214.064 22.1555 214.064 22.4269C214.063 23.5757 213.635 24.6853 212.857 25.5503C212.079 26.4151 211.005 26.9764 209.833 27.13Z" fill="white"/>
<path d="M209.833 27.13V27.2056C209.833 28.781 209.189 30.2916 208.043 31.4056C206.897 32.5195 205.343 33.1454 203.722 33.1454C202.683 33.15 201.661 32.8902 200.758 32.3921C202.011 31.6577 203.189 30.5886 203.611 29.2629C203.761 28.7683 203.793 28.2467 203.704 27.7383C203.614 27.2299 203.406 26.7486 203.094 26.3309C203.057 25.7887 202.875 25.2658 202.564 24.8141C202.253 24.3624 201.826 23.9982 201.325 23.7579C201.167 23.6999 201.003 23.6607 200.836 23.6418C201.137 21.986 200.875 20.2799 200.089 18.782C199.83 17.7161 199.325 16.7218 198.611 15.8743C198.621 16.1799 198.562 16.4836 198.438 16.7644C198.313 17.0452 198.126 17.2958 197.891 17.4982C197.655 17.7007 197.376 17.85 197.075 17.9356C196.773 18.0212 196.455 18.0412 196.144 17.9937C193.73 17.7237 193.464 15.4396 193.464 15.4396C193.464 15.4396 193.447 15.4639 193.447 15.4801C192.175 17.9532 189.091 17.7777 186.986 16.4655C186.24 16.0149 185.602 15.4147 185.114 14.7052C184.708 12.0323 187.15 9.67805 189.744 9.51875C189.941 7.85833 191.341 6.17091 193.041 6.17091C193.632 6.16929 194.213 6.32184 194.722 6.61234C195.232 6.90285 195.652 7.32106 195.939 7.82323C195.983 7.9018 196.023 7.98306 196.058 8.06622C196.83 7.14826 198.053 6.17631 199.264 6.17631C200.112 6.17739 200.94 6.4355 201.63 6.91446C202.321 7.39341 202.842 8.06974 203.119 8.84919C203.119 8.7304 204.23 8.34701 204.339 8.30922C204.79 8.18178 205.258 8.11995 205.728 8.12562C206.546 8.14641 207.347 8.36672 208.055 8.7663C208.764 9.16588 209.358 9.73177 209.783 10.4124C209.826 10.6495 209.846 10.8898 209.844 11.1306C209.845 11.8501 209.671 12.5596 209.336 13.2014C209.717 13.3391 210.068 13.5462 210.369 13.8116C210.287 14.1801 210.156 14.5367 209.98 14.8726C210.578 15.0927 211.099 15.4717 211.486 15.9661C211.486 16.0498 211.486 16.1334 211.486 16.2171C211.487 16.8473 211.294 17.4634 210.93 17.9856C211.33 18.1324 211.708 18.3295 212.055 18.5714C211.962 18.9562 211.799 19.3217 211.575 19.6514C212.591 20.0169 213.451 20.706 214.014 21.6061C214.06 21.8737 214.083 22.1447 214.083 22.4161C214.085 23.5695 213.655 24.6842 212.873 25.552C212.09 26.4194 211.01 26.9805 209.833 27.13Z" fill="white"/>
<path d="M194.055 184.5H154.555V183.758C154.554 182.29 155.139 180.879 156.186 179.821C157.234 178.764 158.663 178.143 160.172 178.088L169.494 177.713H191.505L194.055 184.5Z" fill="white"/>
<path d="M123.206 129.232L88.6333 129.148V128.406C88.6322 126.937 89.2175 125.526 90.2655 124.468C91.3136 123.411 92.743 122.79 94.2527 122.736L103.575 122.366L127.822 122.741L123.206 129.232Z" fill="white"/>
<path d="M180.422 129.04H198.756C204.531 129.025 210.104 126.97 214.438 123.26C218.772 119.549 221.571 114.434 222.314 108.867C222.448 107.906 222.515 106.937 222.511 105.967V87.1895" stroke="black" stroke-miterlimit="10"/>
<path d="M187.081 102.117L176.333 102.476H176.153L169.367 102.609C167.872 102.638 166.383 102.809 164.922 103.119C152.808 105.665 145.067 117.463 147.653 129.138C148.034 130.877 148.631 132.565 149.431 134.165L169.494 177.714L160.172 178.081C158.663 178.135 157.235 178.757 156.187 179.814C155.139 180.871 154.555 182.283 154.556 183.751V184.493H194.056L191.506 177.714L173.15 128.973" stroke="black" stroke-miterlimit="10"/>
<path d="M154.556 85.1182L123.206 129.231" stroke="black" stroke-miterlimit="10"/>
<path d="M164.917 103.129L150.492 90.8281" stroke="black" stroke-miterlimit="10"/>
<path d="M195.286 129.024L195.191 128.94" stroke="black" stroke-miterlimit="10"/>
<path d="M160.267 66.6815L150.903 48.0361" stroke="black" stroke-miterlimit="10"/>
<path d="M274.083 128.972C274.083 128.988 274.1 128.996 274.108 129.015H266.181" stroke="black" stroke-miterlimit="10"/>
<path d="M182.552 129.057C182.552 129.016 182.527 128.973 182.519 128.94" stroke="black" stroke-miterlimit="10"/>
<path d="M208.167 38.0428C211.11 37.9664 214.032 38.5504 216.705 39.7491C222.94 42.5705 228.13 47.1897 231.569 52.9785C235.358 59.4015 238.425 66.3321 241.791 72.9576C246.01 81.284 250.234 89.6066 254.464 97.926C256.501 101.942 258.538 105.958 260.575 109.976L264.897 118.483C265.785 119.904 267.037 121.078 268.53 121.89C270.023 122.699 271.702 123.124 273.411 123.127C275.123 123.126 276.799 123.602 278.242 124.497C279.685 125.392 280.835 126.669 281.555 128.178L281.933 128.972H271.508" stroke="black" stroke-miterlimit="10"/>
<path d="M176.336 102.481C175.111 94.8459 175.37 87.1593 175.989 79.4809C177.1 65.7574 181.395 52.007 192.909 43.1298C193.206 42.9003 193.506 42.6735 193.817 42.4629" stroke="black" stroke-miterlimit="10"/>
<path d="M204.831 56.2676C204.614 64.351 211.711 72.5424 211.711 72.5424C211.711 72.5424 211.728 72.5586 211.728 72.5667C215.328 77.4265 218.922 82.3006 222.511 87.1893C223.439 88.442 224.358 89.6866 225.289 90.9367C228.898 95.8143 232.5 100.694 236.094 105.575C239.167 109.776 242.064 114.185 245.294 118.316C246.128 119.374 246.978 120.411 247.872 121.421C249.014 122.717 250.192 124.194 251.583 125.239C252.975 126.283 254.589 127.258 256.028 128.36C257.233 129.343 258.266 130.511 259.083 131.818C259.978 133.303 260.072 134.982 260.836 136.467C262.175 139.092 265.483 138.657 266.617 136.151C268.189 132.677 264.753 125.163 264.753 125.163" stroke="black" stroke-miterlimit="10"/>
<path d="M310 129.016H266.181" stroke="black" stroke-miterlimit="10"/>
<path d="M176.278 76.5186L160.278 66.6802L160.039 66.5291C157.712 65.0584 155.096 64.0735 152.357 63.6359C149.617 63.1985 146.815 63.3184 144.125 63.9877C141.436 64.657 138.919 65.8617 136.734 67.525C134.548 69.1884 132.742 71.2744 131.428 73.6513L103.611 122.46L94.0668 123.078C92.5921 123.175 91.2101 123.813 90.2004 124.862C89.1907 125.912 88.6288 127.295 88.6279 128.731V129.347" stroke="black" stroke-miterlimit="10"/>
<path d="M146.925 33.3878C148.247 33.6389 148.747 33.5552 149.703 33.7388C149.776 33.7499 149.851 33.7374 149.916 33.7037C149.981 33.67 150.033 33.6165 150.065 33.5512C150.096 33.4861 150.105 33.4129 150.09 33.3425C150.075 33.272 150.036 33.2085 149.981 33.161L146.82 30.1912C145.954 29.4744 145.356 28.4997 145.12 27.4184L145.092 27.3104C145.201 26.9429 145.409 26.6109 145.695 26.3482C145.98 26.0857 146.333 25.9024 146.717 25.8174C147.389 25.7115 148.078 25.7979 148.7 26.0658C149.731 26.4599 151.114 26.8109 152.431 27.251C154.252 27.8749 155.782 29.1136 156.742 30.7419L156.864 30.9525C160.648 37.3445 164.978 43.4162 169.808 49.1038L180.086 61.3801" stroke="black" stroke-miterlimit="10"/>
<path d="M148.566 49.2938C147.977 49.2938 147.404 49.1102 146.93 48.7701C146.456 48.4299 146.106 47.9512 145.933 47.4039L143.289 39.4798L140.955 31.993L137.914 22.3545C137.796 21.9805 137.771 21.585 137.843 21.2003C137.914 20.8156 138.079 20.4527 138.323 20.1425C138.568 19.8323 138.885 19.5831 139.249 19.4159C139.612 19.2488 140.012 19.1686 140.414 19.1821C140.933 19.1967 141.436 19.3673 141.852 19.6705C142.268 19.9735 142.578 20.3941 142.739 20.875L146.93 33.3889L151.194 45.784C151.329 46.1866 151.364 46.6148 151.295 47.033C151.227 47.4512 151.058 47.8478 150.801 48.1901C150.545 48.5327 150.209 48.8111 149.82 49.0031C149.432 49.1948 149.002 49.2944 148.566 49.2938Z" fill="white"/>
<path d="M148.566 49.2938C147.977 49.2938 147.404 49.1102 146.93 48.7701C146.456 48.4299 146.106 47.9512 145.933 47.4039L143.289 39.4798L140.955 31.993L137.914 22.3545C137.796 21.9805 137.771 21.585 137.843 21.2003C137.914 20.8156 138.079 20.4527 138.323 20.1425C138.568 19.8323 138.885 19.5831 139.249 19.4159C139.612 19.2488 140.012 19.1686 140.414 19.1821C140.933 19.1967 141.436 19.3673 141.852 19.6705C142.268 19.9735 142.578 20.3941 142.739 20.875L146.93 33.3889L151.194 45.784C151.329 46.1865 151.364 46.6148 151.295 47.033C151.227 47.4512 151.058 47.8478 150.801 48.1901C150.545 48.5327 150.209 48.8111 149.82 49.0031C149.432 49.1948 149.002 49.2944 148.566 49.2938Z" stroke="black" stroke-miterlimit="10"/>
<path d="M137.758 37.1629C137.097 37.137 136.457 36.931 135.911 36.5689C135.612 36.3535 135.361 36.0821 135.173 35.7711C134.985 35.4598 134.862 35.115 134.813 34.757C134.764 34.399 134.79 34.0351 134.888 33.6871C134.986 33.3388 135.156 33.0132 135.386 32.7297C135.799 32.234 136.357 31.8709 136.986 31.6875C137.79 31.4308 138.66 31.4421 139.458 31.7199C140.307 32.0774 141.002 32.71 141.425 33.5099" stroke="black" stroke-miterlimit="10"/>
<path d="M139.399 42.314C138.736 42.3084 138.087 42.1213 137.527 41.7741C137.224 41.5662 136.966 41.3008 136.769 40.9943C136.573 40.6876 136.442 40.3458 136.384 39.9892C136.326 39.6325 136.342 39.268 136.432 38.9176C136.521 38.5669 136.682 38.2375 136.905 37.9483C137.307 37.4424 137.857 37.066 138.483 36.8684C139.279 36.5925 140.147 36.583 140.949 36.8414C141.747 37.1114 142.533 37.592 142.919 38.3074" stroke="black" stroke-miterlimit="10"/>
<path d="M144.444 42.9627C143.968 42.348 143.29 41.9092 142.523 41.7178C141.756 41.5267 140.945 41.5942 140.222 41.9098C139.672 42.1398 139.205 42.5243 138.881 43.014C138.702 43.2924 138.583 43.6029 138.53 43.9269C138.477 44.2511 138.491 44.5821 138.572 44.9007C138.653 45.2193 138.798 45.519 139 45.7819C139.202 46.0449 139.456 46.266 139.747 46.4321L140.125 46.6292C140.125 46.6292 142.392 47.5147 146.172 47.9386" stroke="black" stroke-miterlimit="10"/>
<path d="M169.678 129.065C170.725 129.065 181.498 129.065 182.553 129.065C186.781 129.049 191.034 129.041 195.287 129.033C216.342 128.981 237.475 128.949 256.675 128.94" stroke="black" stroke-miterlimit="10"/>
<path d="M266.153 128.931C272.564 128.931 276.128 128.931 281.919 128.931C291.364 128.947 299.875 128.971 307.092 129.007" stroke="black" stroke-miterlimit="10"/>
<path d="M60 129.458C60.5056 129.458 99.3389 129.291 147.647 129.147" stroke="black" stroke-miterlimit="10"/>
<path d="M208.167 37.8008C208.278 38.8375 207.555 39.7069 206.98 40.5007C205.161 42.9989 202.955 45.209 200.442 47.0533C198.475 48.5409 195.211 51.0788 192.814 48.9432C190.753 47.0991 192.083 43.7243 194.042 42.3312L194.067 42.315" stroke="black" stroke-miterlimit="10"/>
<path d="M188.919 20.0674C188.919 20.0674 192.403 20.3941 192.958 23.3072" stroke="black" stroke-miterlimit="10"/>
<path d="M187.298 28.5601C186.488 28.6861 185.661 28.6597 184.861 28.4818C184.711 28.4459 184.571 28.3746 184.455 28.2747C184.339 28.1745 184.25 28.0484 184.195 27.9072C184.14 27.766 184.122 27.614 184.141 27.4645C184.161 27.3146 184.217 27.1718 184.306 27.0481C185.139 25.9115 185.973 24.7883 186.892 23.7192C187.034 23.5845 187.131 23.4114 187.17 23.2224C187.17 23.2224 187.134 19.6613 188.098 17.0127" stroke="black" stroke-miterlimit="10"/>
<path d="M190.513 23.2265C190.635 22.6617 190.333 22.122 189.84 22.0213C189.345 21.9203 188.846 22.2961 188.724 22.8609C188.602 23.4258 188.903 23.9652 189.397 24.0662C189.891 24.1671 190.391 23.791 190.513 23.2265Z" fill="black"/>
<path d="M208.166 38.0426C206.886 34.4329 206.297 32.5889 206.297 32.5889" stroke="black" stroke-linecap="round" stroke-linejoin="round"/>
<path d="M194.069 36.8359L194.05 49.2932" stroke="black" stroke-miterlimit="10"/>
<path d="M186.02 28.6396C186.02 28.6396 186.914 35.8051 190.492 37.1632C194.07 38.5212 197.622 34.331 197.622 34.331" stroke="black" stroke-linecap="round" stroke-linejoin="round"/>
<path d="M186.752 31.8984C187.216 32.2138 187.753 32.4117 188.316 32.4743C188.877 32.537 189.447 32.4624 189.972 32.2575" stroke="black" stroke-linecap="round" stroke-linejoin="round"/>
<path d="M195.725 7.72329C195.726 7.17305 195.578 6.63227 195.297 6.15466C194.932 5.54098 194.371 5.06041 193.698 4.78664C193.025 4.51287 192.279 4.46103 191.573 4.63895C190.867 4.81687 190.241 5.21511 189.79 5.77209C189.34 6.32934 189.089 7.01457 189.078 7.72329" stroke="black" stroke-miterlimit="10" stroke-linecap="round"/>
<path d="M193.889 12.4798C193.885 11.7003 193.686 10.9338 193.309 10.2462C192.931 9.55879 192.387 8.97157 191.722 8.53527C188.389 6.35377 183.586 9.68541 184.539 13.4409C184.872 14.7504 185.842 15.7574 186.983 16.4675C189.086 17.7796 192.172 17.9605 193.439 15.4847L193.458 15.4442C193.458 15.4442 193.736 17.7229 196.139 17.9983C196.449 18.0448 196.767 18.0242 197.068 17.9381C197.37 17.8523 197.648 17.7027 197.884 17.5005C198.12 17.2983 198.307 17.0482 198.432 16.768C198.557 16.4877 198.617 16.1843 198.608 15.8789C200.517 18.1279 200.8 21.2787 199.583 23.9111C199.803 23.4359 201.003 23.6222 201.328 23.7626C202.778 24.3862 203.428 26.1601 202.972 27.591C202.547 28.9247 201.369 29.9858 200.122 30.7282C200.017 30.7882 199.927 30.8721 199.862 30.9731C199.797 31.0738 199.758 31.1883 199.749 31.3068C199.739 31.4253 199.76 31.5444 199.808 31.654C199.856 31.7634 199.93 31.8598 200.025 31.9351C200.931 32.6041 202.011 33.014 203.143 33.1187C204.276 33.2235 205.417 33.0188 206.436 32.5277C207.455 32.0366 208.313 31.2787 208.914 30.3392C209.514 29.3996 209.832 28.3162 209.833 27.2103V27.1347C210.914 27.0032 211.919 26.5235 212.687 25.7721C213.454 25.0207 213.941 24.0409 214.069 22.9893C214.197 21.9377 213.959 20.8748 213.392 19.97C212.826 19.0653 211.964 18.3712 210.944 17.9983C211.308 17.4762 211.501 16.8601 211.5 16.2299C211.5 15.3705 211.149 14.5465 210.523 13.9391C209.898 13.3313 209.051 12.9901 208.167 12.9901" stroke="black" stroke-linecap="round" stroke-linejoin="round"/>
<path d="M195.725 6.05783C196.472 5.05617 197.255 4.5 198.622 4.5C199.472 4.50081 200.3 4.75946 200.992 5.24004C201.683 5.72088 202.202 6.39936 202.477 7.18097C202.441 7.07298 203.589 6.6734 203.702 6.641C204.154 6.51438 204.622 6.45255 205.091 6.45741C206.351 6.49143 207.549 6.99604 208.435 7.86675C209.321 8.73718 209.828 9.9065 209.85 11.1309C209.849 11.8504 209.675 12.5597 209.341 13.2017" stroke="black" stroke-linecap="square" stroke-linejoin="round"/>
<path d="M209.833 27.13V27.2056C209.833 28.781 209.189 30.2916 208.043 31.4056C206.897 32.5195 205.343 33.1454 203.722 33.1454C202.683 33.15 201.661 32.8902 200.758 32.3921C200.498 32.2609 200.251 32.1073 200.019 31.9331C199.924 31.8578 199.85 31.7611 199.801 31.6518C199.753 31.5422 199.733 31.4231 199.742 31.3043C199.751 31.1858 199.79 31.0708 199.855 30.9698C199.919 30.8686 200.008 30.7841 200.114 30.7236C201.366 29.9892 202.544 28.9201 202.966 27.5917C203.095 27.184 203.139 26.7553 203.094 26.3309C203.057 25.7887 202.875 25.2658 202.564 24.8141C202.253 24.3624 201.826 23.9982 201.325 23.7579C201.167 23.6999 201.003 23.6607 200.836 23.6418C200.364 23.5662 199.725 23.5743 199.58 23.9118C200.325 22.3027 200.504 20.4997 200.089 18.782C199.83 17.7161 199.325 16.7218 198.611 15.8743C198.621 16.1799 198.562 16.4836 198.438 16.7644C198.313 17.0452 198.126 17.2958 197.891 17.4982C197.655 17.7007 197.376 17.85 197.075 17.9356C196.773 18.0212 196.455 18.0412 196.144 17.9937C193.73 17.7237 193.464 15.4396 193.464 15.4396C193.464 15.4396 193.447 15.4639 193.447 15.4801C192.175 17.9532 189.091 17.7777 186.986 16.4655C186.24 16.0149 185.602 15.4147 185.114 14.7052C184.708 12.0323 187.15 9.67805 189.744 9.51875C189.941 7.85833 191.341 6.17091 193.041 6.17091C193.632 6.16929 194.213 6.32184 194.722 6.61234C195.232 6.90285 195.652 7.32106 195.939 7.82323C195.983 7.9018 196.023 7.98306 196.058 8.06622C196.83 7.14826 198.053 6.17631 199.264 6.17631C200.112 6.17739 200.94 6.4355 201.63 6.91446C202.321 7.39341 202.842 8.06974 203.119 8.84919C203.119 8.7304 204.23 8.34701 204.339 8.30922C204.79 8.18178 205.258 8.11995 205.728 8.12562C206.546 8.14641 207.347 8.36672 208.055 8.7663C208.764 9.16588 209.358 9.73177 209.783 10.4124C209.826 10.6495 209.846 10.8898 209.844 11.1306C209.845 11.8501 209.671 12.5596 209.336 13.2014C209.717 13.3391 210.068 13.5462 210.369 13.8116C211.017 14.3618 211.416 15.1375 211.48 15.9715C211.48 16.0552 211.48 16.1389 211.48 16.2225C211.482 16.8527 211.288 17.4688 210.925 17.991C211.324 18.1378 211.703 18.3349 212.05 18.5768C213.085 19.3018 213.783 20.3941 213.994 21.6169C214.041 21.8845 214.064 22.1555 214.064 22.4269C214.063 23.5757 213.635 24.6853 212.857 25.5503C212.079 26.4151 211.005 26.9764 209.833 27.13Z" fill="white"/>
<path d="M209.833 27.13V27.2056C209.833 28.781 209.189 30.2916 208.043 31.4056C206.897 32.5195 205.343 33.1454 203.722 33.1454C202.683 33.15 201.661 32.8902 200.758 32.3921C202.011 31.6577 203.189 30.5886 203.611 29.2629C203.761 28.7683 203.793 28.2467 203.704 27.7383C203.614 27.2299 203.406 26.7486 203.094 26.3309C203.057 25.7887 202.875 25.2658 202.564 24.8141C202.253 24.3624 201.826 23.9982 201.325 23.7579C201.167 23.6999 201.003 23.6607 200.836 23.6418C201.137 21.986 200.875 20.2799 200.089 18.782C199.83 17.7161 199.325 16.7218 198.611 15.8743C198.621 16.1799 198.562 16.4836 198.438 16.7644C198.313 17.0452 198.126 17.2958 197.891 17.4982C197.655 17.7007 197.376 17.85 197.075 17.9356C196.773 18.0212 196.455 18.0412 196.144 17.9937C193.73 17.7237 193.464 15.4396 193.464 15.4396C193.464 15.4396 193.447 15.4639 193.447 15.4801C192.175 17.9532 189.091 17.7777 186.986 16.4655C186.24 16.0149 185.602 15.4147 185.114 14.7052C184.708 12.0323 187.15 9.67805 189.744 9.51875C189.941 7.85833 191.341 6.17091 193.041 6.17091C193.632 6.16929 194.213 6.32184 194.722 6.61234C195.232 6.90285 195.652 7.32106 195.939 7.82323C195.983 7.9018 196.023 7.98306 196.058 8.06622C196.83 7.14826 198.053 6.17631 199.264 6.17631C200.112 6.17739 200.94 6.4355 201.63 6.91446C202.321 7.39341 202.842 8.06974 203.119 8.84919C203.119 8.7304 204.23 8.34701 204.339 8.30922C204.79 8.18178 205.258 8.11995 205.728 8.12562C206.546 8.14641 207.347 8.36672 208.055 8.7663C208.764 9.16588 209.358 9.73177 209.783 10.4124C209.826 10.6495 209.846 10.8898 209.844 11.1306C209.845 11.8501 209.671 12.5596 209.336 13.2014C209.717 13.3391 210.068 13.5462 210.369 13.8116C210.287 14.1801 210.156 14.5367 209.98 14.8726C210.578 15.0927 211.099 15.4717 211.486 15.9661C211.486 16.0498 211.486 16.1334 211.486 16.2171C211.487 16.8473 211.294 17.4634 210.93 17.9856C211.33 18.1324 211.708 18.3295 212.055 18.5714C211.962 18.9562 211.799 19.3217 211.575 19.6514C212.591 20.0169 213.451 20.706 214.014 21.6061C214.06 21.8737 214.083 22.1447 214.083 22.4161C214.085 23.5695 213.655 24.6842 212.873 25.552C212.09 26.4194 211.01 26.9805 209.833 27.13Z" fill="white"/>
<path d="M188.919 20.0674C188.919 20.0674 192.403 20.3941 192.958 23.3072" stroke="black" stroke-miterlimit="10"/>
<path d="M187.298 28.5601C186.488 28.6861 185.661 28.6597 184.861 28.4818C184.711 28.4459 184.571 28.3746 184.455 28.2747C184.339 28.1745 184.25 28.0484 184.195 27.9072C184.14 27.766 184.122 27.614 184.141 27.4645C184.161 27.3146 184.217 27.1718 184.306 27.0481C185.139 25.9115 185.973 24.7883 186.892 23.7192C187.034 23.5845 187.131 23.4114 187.17 23.2224C187.17 23.2224 187.134 19.6613 188.098 17.0127" stroke="black" stroke-miterlimit="10"/>
<path d="M190.513 23.2265C190.635 22.6617 190.333 22.122 189.84 22.0213C189.345 21.9203 188.846 22.2961 188.724 22.8609C188.602 23.4258 188.903 23.9652 189.397 24.0662C189.891 24.1671 190.391 23.791 190.513 23.2265Z" fill="black"/>
<path d="M208.166 38.0426C206.886 34.4329 206.297 32.5889 206.297 32.5889" stroke="black" stroke-linecap="round" stroke-linejoin="round"/>
<path d="M194.069 36.8359L194.05 49.2932" stroke="black" stroke-miterlimit="10"/>
<path d="M186.02 28.6396C186.02 28.6396 186.914 35.8051 190.492 37.1632C194.07 38.5212 197.622 34.331 197.622 34.331" stroke="black" stroke-linecap="round" stroke-linejoin="round"/>
<path d="M186.752 31.8984C187.216 32.2138 187.753 32.4117 188.316 32.4743C188.877 32.537 189.447 32.4624 189.972 32.2575" stroke="black" stroke-linecap="round" stroke-linejoin="round"/>
<path d="M195.725 7.72329C195.726 7.17305 195.578 6.63227 195.297 6.15466C194.932 5.54098 194.371 5.06041 193.698 4.78664C193.025 4.51287 192.279 4.46103 191.573 4.63895C190.867 4.81687 190.241 5.21511 189.79 5.77209C189.34 6.32934 189.089 7.01457 189.078 7.72329" stroke="black" stroke-miterlimit="10" stroke-linecap="round"/>
<path d="M193.889 12.4798C193.885 11.7003 193.686 10.9338 193.309 10.2462C192.931 9.55879 192.387 8.97157 191.722 8.53527C188.389 6.35377 183.586 9.68541 184.539 13.4409C184.872 14.7504 185.842 15.7574 186.983 16.4675C189.086 17.7796 192.172 17.9605 193.439 15.4847L193.458 15.4442C193.458 15.4442 193.736 17.7229 196.139 17.9983C196.449 18.0448 196.767 18.0242 197.068 17.9381C197.37 17.8523 197.648 17.7027 197.884 17.5005C198.12 17.2983 198.307 17.0482 198.432 16.768C198.557 16.4877 198.617 16.1843 198.608 15.8789C200.517 18.1279 200.8 21.2787 199.583 23.9111C199.803 23.4359 201.003 23.6222 201.328 23.7626C202.778 24.3862 203.428 26.1601 202.972 27.591C202.547 28.9247 201.369 29.9858 200.122 30.7282C200.017 30.7882 199.927 30.8721 199.862 30.9731C199.797 31.0738 199.758 31.1883 199.749 31.3068C199.739 31.4253 199.76 31.5444 199.808 31.654C199.856 31.7634 199.93 31.8598 200.025 31.9351C200.931 32.6041 202.011 33.014 203.143 33.1187C204.276 33.2235 205.417 33.0188 206.436 32.5277C207.455 32.0366 208.313 31.2787 208.914 30.3392C209.514 29.3996 209.832 28.3162 209.833 27.2103V27.1347C210.914 27.0032 211.919 26.5235 212.687 25.7721C213.454 25.0207 213.941 24.0409 214.069 22.9893C214.197 21.9377 213.959 20.8748 213.392 19.97C212.826 19.0653 211.964 18.3712 210.944 17.9983C211.308 17.4762 211.501 16.8601 211.5 16.2299C211.5 15.3705 211.149 14.5465 210.523 13.9391C209.898 13.3313 209.051 12.9901 208.167 12.9901" stroke="black" stroke-linecap="round" stroke-linejoin="round"/>
<path d="M195.725 6.05783C196.472 5.05617 197.255 4.5 198.622 4.5C199.472 4.50081 200.3 4.75946 200.992 5.24004C201.683 5.72088 202.202 6.39936 202.477 7.18097C202.441 7.07298 203.589 6.6734 203.702 6.641C204.154 6.51438 204.622 6.45255 205.091 6.45741C206.351 6.49143 207.549 6.99604 208.435 7.86675C209.321 8.73718 209.828 9.9065 209.85 11.1309C209.849 11.8504 209.675 12.5597 209.341 13.2017" stroke="black" stroke-linecap="square" stroke-linejoin="round"/>
</svg>
