<svg width="34" height="34" viewBox="0 0 34 34" fill="none" xmlns="http://www.w3.org/2000/svg">
<path d="M0.333008 16.9999C0.333008 12.5796 2.08896 8.34041 5.21456 5.21481C8.34017 2.0892 12.5794 0.333252 16.9997 0.333252C19.1884 0.333252 21.3556 0.764348 23.3777 1.60193C25.3998 2.4395 27.2371 3.66716 28.7848 5.21481C30.3324 6.76245 31.5601 8.59977 32.3977 10.6219C33.2352 12.644 33.6663 14.8112 33.6663 16.9999C33.6663 21.4202 31.9104 25.6594 28.7848 28.785C25.6592 31.9106 21.4199 33.6666 16.9997 33.6666C14.811 33.6666 12.6437 33.2355 10.6216 32.3979C8.59952 31.5603 6.7622 30.3327 5.21456 28.785C2.08896 25.6594 0.333008 21.4202 0.333008 16.9999ZM26.9997 15.3333H13.6663L19.4997 9.49992L17.133 7.13325L7.26634 16.9999L17.133 26.8666L19.4997 24.4999L13.6663 18.6666H26.9997V15.3333Z" fill="white"/>
</svg>
