<svg width="38" height="31" viewBox="0 0 38 31" fill="none" xmlns="http://www.w3.org/2000/svg">
<path d="M6.52632 21.2106V22.0262C6.52632 23.0157 7.12259 23.9084 8.03704 24.2875C8.95151 24.6661 10.0039 24.4566 10.704 23.7565L13.2508 21.2106H18.7631C20.2779 21.2106 21.7303 20.6091 22.8012 19.5381C23.8722 18.4671 24.4737 17.0148 24.4737 15.5V5.71059C24.4737 4.19574 23.8722 2.74341 22.8012 1.67245C21.7302 0.601489 20.2779 0 18.7631 0H5.71031C4.19546 0 2.74341 0.601461 1.67217 1.67245C0.60121 2.74341 0 4.19574 0 5.71059V15.5C0 17.0148 0.601189 18.4672 1.67217 19.5381C2.74341 20.6091 4.19546 21.2106 5.71031 21.2106L6.52632 21.2106ZM8.1578 20.3947C8.1578 19.9443 7.79233 19.5788 7.3422 19.5788H5.71045C4.62879 19.5788 3.59111 19.1489 2.82578 18.3846C2.06151 17.6193 1.63162 16.5816 1.63162 15.5V5.71057C1.63162 4.62891 2.06154 3.59123 2.82578 2.82591C3.59111 2.06164 4.62879 1.63174 5.71045 1.63174H18.7632C19.8449 1.63174 20.8826 2.06166 21.6479 2.82591C22.4122 3.59123 22.8421 4.62891 22.8421 5.71057V15.5C22.8421 16.5816 22.4121 17.6193 21.6479 18.3846C20.8826 19.1489 19.8449 19.5788 18.7632 19.5788H12.9125C12.6962 19.5788 12.4891 19.6646 12.3356 19.8178L9.55069 22.603C9.31716 22.8363 8.96644 22.9065 8.66132 22.78C8.35704 22.6536 8.15792 22.3558 8.15792 22.0262V20.3947L8.1578 20.3947Z" fill="#319CFF"/>
<path d="M6.52632 21.2106V22.0262C6.52632 23.0157 7.12259 23.9084 8.03704 24.2875C8.95151 24.6661 10.0039 24.4566 10.704 23.7565L13.2508 21.2106H18.7631C20.2779 21.2106 21.7303 20.6091 22.8012 19.5381C23.8722 18.4671 24.4737 17.0148 24.4737 15.5V5.71059C24.4737 4.19574 23.8722 2.74341 22.8012 1.67245C21.7302 0.601489 20.2779 0 18.7631 0H5.71031C4.19546 0 2.74341 0.601461 1.67217 1.67245C0.60121 2.74341 0 4.19574 0 5.71059V15.5C0 17.0148 0.601189 18.4672 1.67217 19.5381C2.74341 20.6091 4.19546 21.2106 5.71031 21.2106L6.52632 21.2106ZM8.1578 20.3947C8.1578 19.9443 7.79233 19.5788 7.3422 19.5788H5.71045C4.62879 19.5788 3.59111 19.1489 2.82578 18.3846C2.06151 17.6193 1.63162 16.5816 1.63162 15.5V5.71057C1.63162 4.62891 2.06154 3.59123 2.82578 2.82591C3.59111 2.06164 4.62879 1.63174 5.71045 1.63174H18.7632C19.8449 1.63174 20.8826 2.06166 21.6479 2.82591C22.4122 3.59123 22.8421 4.62891 22.8421 5.71057V15.5C22.8421 16.5816 22.4121 17.6193 21.6479 18.3846C20.8826 19.1489 19.8449 19.5788 18.7632 19.5788H12.9125C12.6962 19.5788 12.4891 19.6646 12.3356 19.8178L9.55069 22.603C9.31716 22.8363 8.96644 22.9065 8.66132 22.78C8.35704 22.6536 8.15792 22.3558 8.15792 22.0262V20.3947L8.1578 20.3947Z" stroke="#319CFF"/>
<path d="M26.9214 8.15787H31.8161C32.8977 8.15787 33.9354 8.58779 34.7007 9.35204C35.465 10.1174 35.8949 11.155 35.8949 12.2367V22.0261C35.8949 23.1081 35.465 24.1457 34.7007 24.9108C33.9354 25.6753 32.8977 26.1052 31.8161 26.1052H30.1843C29.7342 26.1052 29.3687 26.4707 29.3687 26.9208V28.5526C29.3687 28.882 29.1696 29.1797 28.8653 29.3062C28.5602 29.4326 28.2095 29.3624 27.976 29.1292L25.191 26.3442C25.0375 26.1907 24.8305 26.1052 24.6141 26.1052H18.7634C17.6818 26.1052 16.6441 25.6753 15.8788 24.9108C15.4628 24.4939 15.1462 23.9971 14.9438 23.4571C14.7856 23.0354 14.315 22.8207 13.8941 22.9791C13.4721 23.1364 13.2577 23.6071 13.4158 24.0291C13.6991 24.786 14.1429 25.4811 14.7253 26.0642C15.7963 27.1355 17.2486 27.7367 18.7634 27.7367H24.2757L26.8225 30.2826C27.5226 30.9827 28.5749 31.1925 29.4895 30.8139C30.404 30.4345 31.0002 29.5419 31.0002 28.5525V27.7367H31.8161C33.3309 27.7367 34.783 27.1355 35.8542 26.0642C36.9252 24.9933 37.5264 23.5412 37.5264 22.0261V12.2367C37.5264 10.7218 36.9252 9.26978 35.8542 8.19854C34.783 7.12758 33.3309 6.52637 31.8161 6.52637H26.9214C26.471 6.52637 26.1055 6.89183 26.1055 7.34197C26.1055 7.79238 26.471 8.15787 26.9214 8.15787Z" fill="#319CFF"/>
<path d="M26.9214 8.15787H31.8161C32.8977 8.15787 33.9354 8.58779 34.7007 9.35204C35.465 10.1174 35.8949 11.155 35.8949 12.2367V22.0261C35.8949 23.1081 35.465 24.1457 34.7007 24.9108C33.9354 25.6753 32.8977 26.1052 31.8161 26.1052H30.1843C29.7342 26.1052 29.3687 26.4707 29.3687 26.9208V28.5526C29.3687 28.882 29.1696 29.1797 28.8653 29.3062C28.5602 29.4326 28.2095 29.3624 27.976 29.1292L25.191 26.3442C25.0375 26.1907 24.8305 26.1052 24.6141 26.1052H18.7634C17.6818 26.1052 16.6441 25.6753 15.8788 24.9108C15.4628 24.4939 15.1462 23.9971 14.9438 23.4571C14.7856 23.0354 14.315 22.8207 13.8941 22.9791C13.4721 23.1364 13.2577 23.6071 13.4158 24.0291C13.6991 24.786 14.1429 25.4811 14.7253 26.0642C15.7963 27.1355 17.2486 27.7367 18.7634 27.7367H24.2757L26.8225 30.2826C27.5226 30.9827 28.5749 31.1925 29.4895 30.8139C30.404 30.4345 31.0002 29.5419 31.0002 28.5525V27.7367H31.8161C33.3309 27.7367 34.783 27.1355 35.8542 26.0642C36.9252 24.9933 37.5264 23.5412 37.5264 22.0261V12.2367C37.5264 10.7218 36.9252 9.26978 35.8542 8.19854C34.783 7.12758 33.3309 6.52637 31.8161 6.52637H26.9214C26.471 6.52637 26.1055 6.89183 26.1055 7.34197C26.1055 7.79238 26.471 8.15787 26.9214 8.15787Z" stroke="#319CFF"/>
</svg>
