<svg width="22" height="22" viewBox="0 0 22 22" fill="none" xmlns="http://www.w3.org/2000/svg">
<path d="M16.5343 15.3657C16.6112 15.4423 16.6722 15.5334 16.7139 15.6337C16.7555 15.734 16.777 15.8415 16.777 15.9501C16.777 16.0586 16.7555 16.1662 16.7139 16.2664C16.6722 16.3667 16.6112 16.4578 16.5343 16.5344C16.3786 16.6881 16.1687 16.7743 15.9499 16.7743C15.7312 16.7743 15.5212 16.6881 15.3656 16.5344L10.9999 12.1688L6.6343 16.5344C6.47862 16.6881 6.26867 16.7743 6.04993 16.7743C5.83118 16.7743 5.62123 16.6881 5.46555 16.5344C5.38864 16.4578 5.32761 16.3667 5.28597 16.2664C5.24433 16.1662 5.2229 16.0586 5.2229 15.9501C5.2229 15.8415 5.24433 15.734 5.28597 15.6337C5.32761 15.5334 5.38864 15.4423 5.46555 15.3657L9.83118 11.0001L5.46555 6.63444C5.31057 6.47945 5.22349 6.26925 5.22349 6.05006C5.22349 5.94154 5.24487 5.83407 5.2864 5.7338C5.32794 5.63354 5.38881 5.54243 5.46555 5.46569C5.54229 5.38895 5.6334 5.32807 5.73366 5.28654C5.83393 5.24501 5.9414 5.22363 6.04993 5.22363C6.26911 5.22363 6.47932 5.3107 6.6343 5.46569L10.9999 9.83131L15.3656 5.46569C15.5205 5.3107 15.7307 5.22363 15.9499 5.22363C16.1691 5.22363 16.3793 5.3107 16.5343 5.46569C16.6893 5.62067 16.7764 5.83088 16.7764 6.05006C16.7764 6.26925 16.6893 6.47945 16.5343 6.63444L12.1687 11.0001L16.5343 15.3657Z" fill="white"/>
<rect x="1" y="1" width="20" height="20" rx="4" stroke="white" stroke-width="2" stroke-linejoin="round"/>
</svg>
