<svg width="19" height="24" viewBox="0 0 19 24" fill="none" xmlns="http://www.w3.org/2000/svg">
<path d="M9.23099 0C10.2802 0 11.2865 0.399257 12.0284 1.10994C12.7703 1.82062 13.1871 2.78451 13.1871 3.78957V11.3687C13.1871 12.3738 12.7703 13.3376 12.0284 14.0483C11.2865 14.759 10.2802 15.1583 9.23099 15.1583C8.18176 15.1583 7.1755 14.759 6.43358 14.0483C5.69166 13.3376 5.27485 12.3738 5.27485 11.3687V3.78957C5.27485 2.78451 5.69166 1.82062 6.43358 1.10994C7.1755 0.399257 8.18176 0 9.23099 0ZM18.462 11.3687C18.462 15.8278 15.0201 19.5036 10.5497 20.1226V24.0006H7.91228V20.1226C3.44184 19.5036 0 15.8278 0 11.3687H2.63743C2.63743 13.0438 3.3321 14.6503 4.56864 15.8347C5.80517 17.0192 7.48227 17.6846 9.23099 17.6846C10.9797 17.6846 12.6568 17.0192 13.8934 15.8347C15.1299 14.6503 15.8246 13.0438 15.8246 11.3687H18.462Z" fill="#2E92F0"/>
</svg>
