<svg width="27" height="28" viewBox="0 0 27 28" fill="none" xmlns="http://www.w3.org/2000/svg">
<path d="M25.65 12.652C25.292 12.652 24.9486 12.7942 24.6954 13.0474C24.4422 13.3005 24.3 13.6439 24.3 14.002C24.3161 16.5305 23.4499 18.9856 21.8506 20.9443C20.2514 22.9029 18.0192 24.2426 15.5384 24.7326C13.0577 25.2225 10.4838 24.8321 8.25998 23.6285C6.03616 22.4249 4.30165 20.4835 3.35519 18.1387C2.40873 15.7939 2.30957 13.1924 3.07479 10.7823C3.84001 8.37224 5.4217 6.30445 7.54745 4.93507C9.6732 3.5657 12.2099 2.98046 14.7208 3.28015C17.2316 3.57985 19.5593 4.74572 21.303 6.57697H18.063C17.705 6.57697 17.3616 6.7192 17.1084 6.97237C16.8552 7.22555 16.713 7.56893 16.713 7.92697C16.713 8.28501 16.8552 8.62839 17.1084 8.88156C17.3616 9.13473 17.705 9.27697 18.063 9.27697H24.1785C24.5365 9.27697 24.8799 9.13473 25.1331 8.88156C25.3863 8.62839 25.5285 8.28501 25.5285 7.92697V1.85198C25.5285 1.49393 25.3863 1.15056 25.1331 0.897382C24.8799 0.644209 24.5365 0.501977 24.1785 0.501977C23.8205 0.501977 23.4771 0.644209 23.2239 0.897382C22.9707 1.15056 22.8285 1.49393 22.8285 1.85198V4.24147C20.5803 2.09235 17.659 0.785412 14.5584 0.541571C11.4578 0.29773 8.36815 1.13195 5.81165 2.90321C3.25514 4.67447 1.38863 7.27412 0.527622 10.2627C-0.333381 13.2513 -0.136062 16.4456 1.08622 19.3055C2.30851 22.1654 4.48079 24.5155 7.23586 25.9587C9.99094 27.4018 13.1598 27.8494 16.2068 27.2258C19.2538 26.6022 21.992 24.9457 23.9586 22.5362C25.9252 20.1267 26.9995 17.1121 27 14.002C27 13.6439 26.8578 13.3005 26.6046 13.0474C26.3514 12.7942 26.008 12.652 25.65 12.652Z" fill="#F2F2F2"/>
</svg>
