<svg width="370" height="189" viewBox="0 0 370 189" fill="none" xmlns="http://www.w3.org/2000/svg">
<path d="M50.9898 170.654C34.1275 154.179 26.007 125.998 44.2059 107.059C48.7094 102.376 54.1601 98.8871 59.9902 96.4002C60.2219 96.3113 60.4502 96.2119 60.682 96.123" stroke="#CCDDE2" stroke-width="2" stroke-miterlimit="10"/>
<path d="M158.792 30.8857C175.739 32.4134 182.207 40.5316 190.317 51.2042C190.989 52.0888 191.637 52.9806 192.275 53.8723C199.529 63.9942 204.96 79.9392 219.626 77.9567C231.084 76.4042 240.894 68.7443 251.16 63.7846C268.083 55.6132 288.438 47.5412 306.63 56.1994C326.129 65.4758 335.737 90.7681 336.113 112.103C336.479 133.551 327.875 160.975 308.145 170.653" stroke="#CCDDE2" stroke-width="2" stroke-miterlimit="10"/>
<path d="M170.429 72.7947C170.2 82.3517 167.16 91.5954 161.731 99.2381C161.718 99.2502 161.708 99.2644 161.701 99.2808C161.187 99.867 160.663 100.453 160.129 101.018C155.866 105.545 150.8 109.136 145.221 111.584C139.642 114.032 133.66 115.289 127.62 115.283H127.496C120.524 115.283 113.555 115.307 106.593 115.307C101.099 115.307 95.5412 115.663 90.1006 114.821C88.3509 114.554 86.6986 113.968 84.9086 114.053C78.0845 114.387 73.3962 121.219 70.1621 126.744C70.1195 126.816 70.0621 126.876 69.9942 126.922C69.97 126.858 69.9586 126.79 69.9606 126.723C70.3905 118.395 68.6845 109.783 64.7586 102.528C64.688 102.386 64.6141 102.251 64.5403 102.119C62.354 98.2114 59.4423 94.854 57.5683 90.7505C54.3252 83.6168 52.8697 75.7211 53.3412 67.8211C53.8127 59.9211 56.1958 52.2819 60.2614 45.6364C64.3273 38.9913 69.9391 33.5629 76.5588 29.8723C83.1784 26.182 90.5832 24.3534 98.0633 24.5619L127.986 25.4146C139.553 25.7447 150.523 30.9214 158.482 39.8066C166.441 48.6918 170.739 60.5578 170.429 72.7947Z" fill="white"/>
<path d="M173.589 66.6413C173.605 78.6889 169.378 90.3108 161.731 99.2382C161.718 99.2503 161.708 99.2649 161.7 99.2809C161.186 99.8671 160.663 100.453 160.129 101.018C155.866 105.545 150.799 109.136 145.221 111.584C139.641 114.032 133.66 115.289 127.62 115.283H127.496C120.524 115.283 113.555 115.308 106.593 115.308C101.099 115.308 95.5409 115.663 90.1004 114.821C88.3507 114.554 86.6984 113.968 84.9084 114.053C78.0842 114.387 73.3959 121.219 70.1619 126.744C70.1192 126.816 70.0618 126.876 69.9939 126.922C69.917 126.972 69.8284 127 69.7377 127.002C69.647 127.004 69.5577 126.98 69.4791 126.932C69.4005 126.884 69.3357 126.815 69.2914 126.731C69.247 126.647 69.2252 126.552 69.2282 126.456C69.46 117.663 67.4282 108.653 63.0959 101.121C63.022 100.979 62.9381 100.833 62.8541 100.702C60.4462 96.6589 57.296 93.2056 55.2139 88.9422C51.5979 81.5275 49.8458 73.2534 50.1256 64.9157C50.4054 56.5777 52.7079 48.456 56.8114 41.3312C60.9153 34.2064 66.6823 28.318 73.5582 24.2323C80.4344 20.1462 88.1881 18 96.0749 18H127.62C133.657 18.0004 139.636 19.2588 145.213 21.7038C150.791 24.1485 155.859 27.7315 160.127 32.2481C164.396 36.7652 167.782 42.127 170.092 48.0282C172.401 53.9294 173.59 60.2541 173.589 66.6413Z" stroke="black" stroke-width="2" stroke-miterlimit="10"/>
<path d="M75.273 42.0381H91.339C92.6099 42.0381 93.7382 42.3851 94.5342 42.92C95.3335 43.457 95.7521 44.1451 95.7521 44.8393V59.4213C95.7521 60.1156 95.3334 60.8037 94.5342 61.3407C93.7382 61.8756 92.6099 62.2227 91.339 62.2227H75.273C74.0021 62.2227 72.8739 61.8756 72.0778 61.3407C71.2786 60.8037 70.8599 60.1156 70.8599 59.4213V44.8393C70.8599 44.1451 71.2786 43.457 72.0778 42.92C72.8738 42.3851 74.0021 42.0381 75.273 42.0381Z" stroke="black"/>
<path d="M140.882 76.0312H124.9C122.628 76.0312 120.786 77.9796 120.786 80.3834V82.5187C120.786 84.9221 122.628 86.8708 124.9 86.8708H140.882C143.155 86.8708 144.996 84.9221 144.996 82.5187V80.3834C144.996 77.9796 143.155 76.0312 140.882 76.0312Z" fill="white"/>
<path d="M105.828 122.667C105.828 122.667 94.0568 121.462 95.3297 108.811C96.6025 96.1593 98.9164 96.7313 109.488 91.4696C109.488 91.4696 118.123 91.427 120.531 94.1662C122.939 96.9054 124.336 91.4803 124.336 91.4803C124.336 91.4803 135.586 76.5088 149.631 79.6566C163.675 82.8044 138.669 94.7205 138.669 94.7205C138.669 94.7205 122.532 94.9549 126.707 101.29C126.707 101.29 129.135 106.054 127.738 110.022C126.341 113.991 126.357 120.357 125.434 120.542C124.51 120.727 110.731 123.903 110.731 123.903L105.828 122.667Z" fill="white"/>
<path d="M215.814 170.658H183.117C177.702 170.666 172.338 169.545 167.333 167.359C162.327 165.173 157.779 161.965 153.946 157.917C153.944 158.762 153.859 159.603 153.694 160.429V137.386C142.948 124.109 130.428 130.863 128.745 131.861C128 124.319 127.342 118.361 127.342 118.361C127.342 118.361 125.531 102.181 139.704 96.2587C139.818 96.2054 139.932 96.1592 140.039 96.1166C146.672 93.4698 152.68 94.7772 157.694 97.3778C157.778 97.4311 157.862 97.4667 157.946 97.52C163.242 100.334 167.397 104.565 169.962 107.034C170.234 107.287 170.486 107.532 170.725 107.745C173.364 110.182 180.249 117.38 187.983 123.182L188.111 123.281C193.793 127.52 199.925 131.009 205.161 131.307C205.171 131.328 218.43 145.437 215.814 170.658Z" fill="#2E2E2E"/>
<path d="M213.134 129.245C210.088 130.52 207.472 131.238 204.929 131.326C203.599 131.373 202.269 131.234 200.973 130.914C197.161 130.03 193.165 127.593 187.876 123.287L187.751 123.187C183.187 119.489 177.676 114.405 170.489 107.75C170.251 107.53 169.999 107.285 169.727 107.04C169.025 106.397 168.303 105.732 167.571 105.046C164.542 102.176 161.235 99.6526 157.704 97.5181C157.62 97.4648 157.536 97.4293 157.452 97.376C157.117 97.1663 156.764 96.9781 156.418 96.7898C155.64 96.3656 154.836 95.9985 154.01 95.6919C151.987 94.9267 149.858 94.5199 147.71 94.4875L146.39 94.5231C129.373 95.0524 125.625 99.2376 125.625 99.2376C127.357 101.736 128.419 104.682 128.702 107.764C127.298 107.523 125.897 107.985 125.656 109.626C125.363 111.64 124.923 113.488 123.154 114.675C122.075 115.342 120.799 115.558 119.577 115.282C119.577 115.282 119.553 115.282 119.543 115.282C119.187 115.172 118.841 115.083 118.536 115.016C118.4 114.982 118.266 114.938 118.136 114.884C114.57 113.509 112.487 114.042 113.166 118.082C113.962 122.832 108.101 123.453 104.239 122.722C97.4253 119.478 95.5614 106.823 100.962 99.028C101.099 98.8291 101.254 98.6194 101.412 98.4063C101.569 98.1931 101.747 97.9977 101.905 97.7987C102.308 97.3358 102.738 96.8992 103.192 96.4913C103.349 96.3492 103.507 96.2035 103.672 96.0721C103.836 95.9406 104.071 95.7488 104.27 95.596C104.462 95.4337 104.666 95.2855 104.877 95.1519C106.705 93.8804 108.758 93.0153 110.911 92.6095C113.065 92.2042 115.274 92.2663 117.404 92.7929C119.122 93.4388 120.735 94.3614 122.186 95.5285C122.186 95.5285 122.321 95.3082 122.593 94.9103C123.224 95.3057 123.832 95.7424 124.413 96.2178C124.413 96.2178 134.639 79.7186 149.47 79.9069C150.664 79.9179 151.855 80.0667 153.019 80.351C164.585 84.6783 172.434 100.268 179.51 102.659C180.046 102.84 180.591 102.992 181.142 103.114C186.616 104.354 192.739 103.004 198.172 102.638C201.752 102.396 205.426 102.485 208.889 103.501C209.319 103.625 209.759 103.778 210.188 103.945H210.209C215.045 105.782 219.807 109.857 220.989 115.271C222.315 121.272 218 126.885 213.134 129.245Z" fill="white"/>
<path d="M314.64 80.4656C314.494 81.0966 314.214 81.6846 313.822 82.1848C313.43 82.685 312.936 83.0847 312.377 83.354L302.957 88.1041L281.974 96.2436L283.989 88.836C284.614 87.8657 285.506 87.1218 286.544 86.7043L304.77 79.318L309.247 77.4706C310.136 77.1281 311.11 77.1203 312.004 77.4493C312.898 77.7779 313.657 78.4231 314.153 79.2754C314.373 79.6435 314.537 80.0449 314.64 80.4656Z" fill="white"/>
<path d="M304.78 77.2025L309.264 75.3373C310.26 74.9511 311.359 74.9881 312.33 75.4407C313.301 75.893 314.068 76.7258 314.472 77.7642C314.875 78.8024 314.882 79.9655 314.492 81.0094C314.102 82.0535 313.345 82.897 312.38 83.3631L302.96 88.1096L288.956 159.876C288.168 162.969 286.44 165.701 284.037 167.65C281.634 169.598 278.691 170.655 275.663 170.655H182.865C177.45 170.664 172.087 169.543 167.082 167.357C162.076 165.171 157.527 161.962 153.695 157.915" stroke="black" stroke-width="2" stroke-miterlimit="10"/>
<path d="M272.426 122.482L272.134 123.335C266.817 138.36 266.209 147.139 266.209 147.139" stroke="black" stroke-width="2" stroke-miterlimit="10"/>
<path d="M131.224 160.823L127.09 116.204C127.087 111.968 128.256 107.823 130.452 104.281C132.649 100.74 135.778 97.9557 139.452 96.2727C142.137 95.0118 145.056 94.4054 147.993 94.4974C150.929 94.5898 153.809 95.3785 156.418 96.8056C156.754 96.9939 157.107 97.1822 157.453 97.3918C157.537 97.4487 157.621 97.4807 157.705 97.534C161.232 99.6663 164.538 102.187 167.565 105.055C168.297 105.741 169.019 106.405 169.721 107.048C169.993 107.301 170.245 107.546 170.483 107.759C177.663 114.413 183.181 119.483 187.745 123.196L187.869 123.295C195.006 129.097 199.781 131.499 204.92 131.321C208.164 131.211 211.546 130.06 215.75 128.088C231.45 120.712 257.837 125.53 266.901 143.987" stroke="black" stroke-width="2" stroke-miterlimit="10"/>
<path d="M141.628 170.636C141.85 170.636 142.058 170.657 142.266 170.657C145.294 170.657 148.199 169.384 150.34 167.119C152.481 164.853 153.684 161.781 153.684 158.577V124.165" stroke="black" stroke-width="2" stroke-miterlimit="10"/>
<path d="M128.692 107.765C127.466 94.6661 112.931 87.2478 102.651 94.4351C102.483 94.5346 102.315 94.6554 102.161 94.7904L102.033 94.8899C101.835 95.0462 101.637 95.2025 101.439 95.366C100.807 95.8932 100.215 96.4716 99.6688 97.0962C99.5009 97.2951 99.333 97.5048 99.1751 97.7037C99.0173 97.9027 98.8628 98.1265 98.7251 98.3254" stroke="black" stroke-width="2" stroke-miterlimit="10"/>
<path d="M104.263 122.691C106.161 124.693 108.397 126.301 110.856 127.431C120.716 131.637 125.501 123.69 125.501 123.69" stroke="black" stroke-width="2" stroke-miterlimit="10"/>
<path d="M210.404 130.321C210.706 130.208 211.011 130.097 211.304 129.998L211.398 129.966C211.477 129.941 211.554 129.911 211.629 129.877C211.888 129.788 212.14 129.689 212.402 129.579L212.895 129.369C217.856 127.07 222.339 121.375 221.003 115.268C219.706 109.37 214.168 105.057 208.912 103.501C205.45 102.485 201.776 102.396 198.196 102.638C192.208 103.036 185.394 104.642 179.524 102.659C171.329 99.8916 162.087 79.4097 147.257 79.2108C132.426 79.0118 122.187 95.5252 122.187 95.5252" stroke="black" stroke-width="2" stroke-miterlimit="10"/>
<path d="M125.622 99.2458C125.622 99.2458 128.692 94.8475 146.837 94.4922" stroke="black" stroke-width="2" stroke-miterlimit="10"/>
<path d="M272.133 123.334L281.134 96.5706L281.836 94.478L284.086 87.781C284.257 87.2716 284.501 86.7923 284.808 86.3599C285.435 85.3907 286.326 84.6471 287.363 84.2282L304.78 77.1973" stroke="black" stroke-width="2" stroke-miterlimit="10"/>
<path d="M263.573 79.2121L258.821 87.5718L246.418 105.222L244.766 97.1927C244.792 96.0267 245.15 94.8959 245.794 93.949L256.658 77.9153L257.83 76.3663C258.392 75.5584 259.2 74.981 260.118 74.7323C261.037 74.4836 262.008 74.5788 262.868 75.002C263.326 75.2254 263.739 75.5417 264.083 75.9328C264.206 76.4881 264.224 77.0637 264.137 77.6261C264.049 78.1889 263.858 78.7278 263.573 79.2121Z" fill="white"/>
<path d="M273.893 118.123L258.828 87.5694L263.573 79.2061C263.99 78.4984 264.206 77.6784 264.194 76.8442C264.183 76.0104 263.945 75.1971 263.509 74.5022C263.096 73.8371 262.514 73.3078 261.83 72.9745C260.972 72.5528 260.002 72.4569 259.085 72.7027C258.167 72.9486 257.358 73.5213 256.793 74.3246L255.617 75.8878" stroke="black" stroke-width="2" stroke-miterlimit="10"/>
<path d="M255.607 75.8906L244.743 91.9102C244.105 92.8645 243.754 93.9996 243.735 95.1681C243.71 95.7117 243.758 96.256 243.88 96.7846L245.492 103.681L245.995 105.841L251.449 129.183" stroke="black" stroke-width="2" stroke-miterlimit="10"/>
<path d="M102.648 94.4287C92.7606 100.916 93.8923 118.232 102.067 122.041C105.19 123.498 114.157 123.853 113.149 118.048C112.477 114.022 114.556 113.489 118.126 114.85C124.302 117.216 125.609 110.892 125.609 110.455" stroke="black" stroke-width="2" stroke-miterlimit="10"/>
<path d="M123.667 125.794L127.708 127.066" stroke="black" stroke-width="2" stroke-miterlimit="10"/>
<path d="M91.8001 145.616L87.9313 154.061C87.6609 154.65 87.1871 155.106 86.6078 155.336C86.0284 155.567 85.388 155.552 84.8181 155.297C84.5038 155.157 84.221 154.947 83.9889 154.682C83.7569 154.418 83.5805 154.104 83.4717 153.761C83.3629 153.419 83.324 153.057 83.3572 152.697C83.3908 152.338 83.4962 151.99 83.6662 151.677L84.4184 150.288C84.4423 150.216 84.4702 150.146 84.5024 150.078L85.023 148.966L89.4493 139.53C89.9852 138.373 90.7869 137.377 91.7806 136.632C92.7744 135.887 93.929 135.418 95.1383 135.267H95.239" stroke="black" stroke-width="2" stroke-miterlimit="10"/>
<path d="M100.357 144.955L94.648 146.703C94.326 146.802 93.9884 146.833 93.655 146.794C93.3215 146.754 92.9987 146.646 92.7049 146.475C92.411 146.304 92.1521 146.073 91.9425 145.796C91.7333 145.518 91.5775 145.2 91.4845 144.859C91.3911 144.518 91.3619 144.161 91.3988 143.809C91.4358 143.456 91.5382 143.114 91.7001 142.803C91.8619 142.493 92.0802 142.219 92.3422 141.997C92.6045 141.776 92.905 141.611 93.2274 141.512L101.328 139.025" stroke="black" stroke-width="2" stroke-miterlimit="10"/>
<path d="M95.9544 146.295C96.1693 147.212 96.0353 148.181 95.5816 148.995C94.5136 150.846 91.8102 151.482 89.6978 151.105" stroke="black" stroke-width="2" stroke-miterlimit="10"/>
<path d="M85.0164 148.966C82.8066 147.371 82.3565 144.426 83.0383 141.836C85.8123 131.117 97.3885 133.665 105.069 135.548C109.646 136.698 114.137 138.208 118.502 140.063C122.116 141.591 125.652 143.641 129.545 144.206" stroke="black" stroke-width="2" stroke-miterlimit="10"/>
<path d="M95.585 148.998C95.585 148.998 96.3809 149.296 97.741 149.861C103.625 152.307 109.223 155.462 114.425 159.262C116.981 161.124 120.276 162.385 123.983 163.227" stroke="black" stroke-width="2" stroke-miterlimit="10"/>
<path d="M130.489 155.195C129.282 154.978 128.04 155.193 126.962 155.807C125.884 156.421 125.031 157.398 124.538 158.584C122.412 163.203 125.381 168.67 130.183 169.452C134.183 170.139 138.222 170.542 142.273 170.656" stroke="black" stroke-width="2" stroke-miterlimit="10"/>
<path d="M128.755 132.023L128.567 131.98C128.567 131.98 128.628 131.938 128.755 131.859C128.745 131.913 128.755 131.98 128.755 132.023Z" fill="#2E2E2E"/>
<path d="M113.933 165.22L66.3602 155.656C65.1575 155.414 63.9976 156.25 63.7689 157.522L63.5657 158.653C63.3373 159.925 64.1269 161.152 65.3295 161.394L112.902 170.958C114.105 171.2 115.265 170.364 115.493 169.092L115.697 167.961C115.925 166.689 115.135 165.462 113.933 165.22Z" stroke="black" stroke-width="2" stroke-miterlimit="10"/>
<path d="M71.1494 162.567V170.657" stroke="black" stroke-width="2" stroke-miterlimit="10"/>
<path d="M35.7192 170.656H321.118" stroke="black" stroke-width="2" stroke-miterlimit="10"/>
<path d="M119.586 41.5391H103.52C100.806 41.5391 98.6064 43.0171 98.6064 44.8403V59.4223C98.6064 61.2456 100.806 62.7237 103.52 62.7237H119.586C122.299 62.7237 124.499 61.2456 124.499 59.4223V44.8403C124.499 43.0171 122.299 41.5391 119.586 41.5391Z" fill="#14668D"/>
<line x1="103.314" y1="51.6318" x2="118.614" y2="51.6318" stroke="white"/>
<path d="M147.832 41.5391H131.766C129.052 41.5391 126.853 43.0171 126.853 44.8403V59.4223C126.853 61.2456 129.052 62.7237 131.766 62.7237H147.832C150.545 62.7237 152.745 61.2456 152.745 59.4223V44.8403C152.745 43.0171 150.545 41.5391 147.832 41.5391Z" fill="#14668D"/>
<line x1="131.56" y1="51.6318" x2="146.86" y2="51.6318" stroke="white"/>
<path d="M99.8234 65.7796L86.9048 56.2285C84.7229 54.6154 82.0754 54.4961 80.9915 55.9621L72.3226 67.6875C71.2386 69.1536 72.1288 71.6499 74.3106 73.263L87.2292 82.8141C89.411 84.4272 92.0585 84.5465 93.1425 83.0804L101.811 71.355C102.895 69.889 102.005 67.3927 99.8234 65.7796Z" fill="#14668D"/>
<line x1="80.7396" y1="64.222" x2="93.0423" y2="73.3178" stroke="white"/>
</svg>
