<svg width="370" height="201" viewBox="0 0 370 201" fill="none" xmlns="http://www.w3.org/2000/svg">
<path d="M217.381 96.3434C202.177 105.232 183.63 94.759 184.502 94.5768C213.243 88.4417 215.783 70.6408 215.783 70.6408C210.045 56.8773 194.404 61.3081 194.404 61.3081C193.952 80.84 170.271 81.94 170.271 81.94C168.75 75.6026 168.834 60.8059 168.834 60.8059C161.657 55.8796 160.204 57.9706 160.204 57.9706C162.467 38.4165 171.582 32.1125 171.582 32.1125C173.101 30.7237 179.889 27.6017 183.375 27.1973L183.499 27.7394C183.499 27.7394 179.975 36.3788 186.729 36.9477C192.413 37.4365 195.643 30.5681 196.523 28.3883C203.913 30.637 210.966 35.67 215.658 44.136C226.758 64.1657 217.381 96.3434 217.381 96.3434Z" fill="#2E2E2E"/>
<path d="M219.024 87.915L255.966 111.913C263.13 116.566 262.209 127.157 254.352 130.55L211.12 149.228C207.1 150.965 202.692 151.657 198.32 151.237C193.948 150.817 189.76 149.299 186.159 146.831L169.556 135.436" stroke="black" stroke-miterlimit="10"/>
<path d="M219.024 95.6526L217.782 94.8438L255.973 119.646C263.137 124.299 262.215 134.89 254.359 138.283L211.127 156.961C207.106 158.698 202.698 159.39 198.327 158.97C193.955 158.55 189.767 157.033 186.166 154.564L165.057 139.805" stroke="black" stroke-miterlimit="10"/>
<path d="M251.172 129.225L211.437 146.395C207.742 147.991 203.691 148.626 199.673 148.24C195.656 147.854 191.807 146.46 188.497 144.191L173.271 133.69C175.367 132.112 177.716 130.888 180.222 130.068C186.498 127.975 192.624 125.468 198.556 122.564C203.059 120.377 207.015 117.24 210.14 113.379C213.266 109.517 215.484 105.026 216.636 100.225C217.433 96.9033 218.132 93.5435 218.705 90.166L253.675 112.86C260.258 117.135 258.39 126.11 251.172 129.225Z" fill="white"/>
<path d="M148.785 178.986C148.785 178.986 155.752 176.15 157.087 174.013C157.087 174.013 157.338 178.866 156.034 180.523C154.731 182.181 146.94 186.563 146.521 186.014C146.102 185.465 148.785 178.986 148.785 178.986Z" fill="white"/>
<path d="M127.338 190.55C127.338 190.55 128.606 192.239 133.103 190.55C137.601 188.861 147.386 182.642 147.386 182.642C147.386 182.642 144.656 189.837 143.667 190.628C142.678 191.419 123.991 200.405 123.991 200.405C123.991 200.405 115.636 201.571 118.785 195.738L127.338 190.55Z" fill="white"/>
<path d="M154.233 96.5391C143.934 100.474 133.036 109.72 136.17 135.325L137.042 141.978" stroke="black" stroke-miterlimit="10"/>
<path d="M154.217 79.8164C155.901 77.4565 157.422 74.9056 158.355 72.1591C159.287 69.4127 159.335 66.4373 159.595 63.5486C160.288 55.8025 161.361 49.3963 164.405 42.1813C167.042 35.9373 175.007 27.8934 182.931 27.1313L183.644 27.0713" stroke="black" stroke-miterlimit="10"/>
<path d="M174.135 95.9711C174.097 95.8622 174.058 95.76 174.018 95.6533" stroke="black" stroke-miterlimit="10"/>
<path d="M170.272 81.4583C169.882 79.2118 169.593 77.0341 169.366 74.9676C169.367 74.9287 169.362 74.8899 169.353 74.8521C168.167 63.3129 169.366 54.918 169.366 54.918" stroke="black" stroke-miterlimit="10"/>
<path d="M197.956 11.4245L196.145 12.1179C196.145 12.1734 196.145 12.8667 196.068 13.8377C195.984 14.9974 195.796 16.1476 195.507 17.2753C195.668 16.5064 195.901 14.6799 194.878 13.4089C194.862 13.3829 194.844 13.3582 194.823 13.3356C194.144 12.5334 193.307 12.8512 192.635 13.4022C192.17 13.7877 191.765 14.2368 191.43 14.7355C191.548 13.2509 191.277 11.7617 190.643 10.409C190.229 9.48626 189.681 8.62766 189.015 7.86029C190.041 11.3267 188.726 13.5955 188.726 13.5955C185.251 14.3977 182.841 14.2266 181.043 13.9222C179.529 12.5356 180.054 7.54253 180.054 7.54253C178.531 8.76467 178.898 13.4933 178.898 13.4933C178.703 12.2594 178.727 11.0017 178.968 9.77571C178.211 10.8262 177.774 12.0661 177.707 13.3511L177.68 13.3378C177.575 13.3113 177.471 13.2793 177.37 13.2422C177.183 13.1458 177.003 13.0389 176.829 12.9223L175.826 12.2556C177.34 4.67163 182.635 -0.0969125 190.815 1.30299C191.349 1.39334 191.874 1.52713 192.386 1.70296C197.775 4.46054 197.956 11.4245 197.956 11.4245Z" fill="white"/>
<path d="M151.275 85.2844L149.213 79.1916C149.167 79.0498 149.085 78.9216 148.975 78.8194C148.865 78.7171 148.73 78.644 148.584 78.6072C148.565 78.6072 148.545 78.6071 148.525 78.5938C148.504 78.5805 148.5 78.5938 148.486 78.5938C148.439 78.5907 148.391 78.5907 148.344 78.5938C148.115 78.5947 147.895 78.6803 147.728 78.8338C147.56 78.9856 147.427 79.1698 147.335 79.3749C147.244 79.5797 147.196 79.8011 147.196 80.0248C147.196 80.1999 147.225 80.3739 147.28 80.5403C147.732 81.8269 148.538 84.149 148.921 85.2067" fill="white"/>
<path d="M150.808 85.2862L148.585 78.6089C148.567 78.6089 148.547 78.6089 148.527 78.5956C148.506 78.5822 148.502 78.5956 148.488 78.5956L147.322 78.3734C146.7 78.26 146.077 78.1378 145.455 78.0245C144.708 77.8779 143.957 77.7556 143.212 77.5801C143.036 77.5312 142.855 77.5014 142.673 77.4912C142.444 77.4905 142.223 77.5774 142.058 77.7334C141.889 77.885 141.754 78.0698 141.662 78.2758C141.571 78.4816 141.524 78.7042 141.526 78.9289C141.525 79.102 141.553 79.274 141.609 79.4377C142.11 80.8776 143.063 83.6019 143.366 84.4285L150.808 85.2862Z" fill="white"/>
<path d="M194.756 54.9166C194.529 57.3898 194.411 60.3829 194.332 64.1448C194.332 72.1443 185.324 78.7682 177.318 80.2837L162.637 83.539C160.697 83.9079 158.979 82.7191 157.63 81.9302C156.243 81.1192 154.821 80.1526 153.821 79.4349C152.381 78.4016 149.609 79.2326 150.177 81.6969C150.299 82.1655 150.53 82.6 150.852 82.9666C151.173 83.333 151.577 83.6219 152.031 83.8101C152.286 83.9227 152.549 84.0176 152.818 84.0945C152.919 84.1192 153.007 84.1756 153.072 84.2552C153.136 84.3345 153.171 84.4325 153.173 84.5338C153.175 84.6351 153.142 84.7342 153.08 84.8156C153.019 84.8969 152.931 84.9558 152.832 84.9833C151.56 85.4144 149.231 85.6699 145.473 84.3167C140.659 82.5768 140.285 93.3627 146.868 95.2404H146.893C152.956 97.0402 159.482 96.8091 165.749 96.5514C172.866 96.2867 179.948 95.4386 186.922 94.016C190.469 93.2783 194.113 92.5117 197.358 90.9362C202.949 88.2231 206.978 85.1122 210.81 80.2703C215.111 74.8418 216.946 67.7201 217.983 61.0428C219.169 53.4034 217.53 46.9528 213.359 40.3777L213.205 40.1377" stroke="black" stroke-miterlimit="10"/>
<path d="M151.275 85.2844L149.213 79.1916C149.167 79.0498 149.085 78.9216 148.975 78.8194C148.865 78.7171 148.73 78.644 148.584 78.6072C148.565 78.6072 148.545 78.6071 148.525 78.5938C148.504 78.5805 148.5 78.5938 148.486 78.5938C148.439 78.5907 148.391 78.5907 148.344 78.5938C148.115 78.5947 147.895 78.6803 147.728 78.8338C147.56 78.9856 147.427 79.1698 147.335 79.3749C147.244 79.5797 147.196 79.8011 147.196 80.0248C147.196 80.1999 147.225 80.3739 147.28 80.5403C147.732 81.8269 148.538 84.149 148.921 85.2067" stroke="black" stroke-miterlimit="10"/>
<path d="M148.585 78.6089C148.567 78.6089 148.547 78.6089 148.527 78.5956C148.506 78.5822 148.502 78.5956 148.488 78.5956L147.322 78.3734C146.7 78.26 146.077 78.1378 145.455 78.0245C144.708 77.8779 143.957 77.7556 143.212 77.5801C143.036 77.5312 142.855 77.5014 142.673 77.4912C142.444 77.4905 142.223 77.5774 142.058 77.7334C141.889 77.885 141.754 78.0698 141.662 78.2758C141.571 78.4816 141.524 78.7042 141.526 78.9289C141.525 79.102 141.553 79.274 141.609 79.4377C142.11 80.8776 143.063 83.6019 143.366 84.4285" stroke="black" stroke-miterlimit="10"/>
<path d="M177.003 13.1328C177.003 16.0215 177.576 18.7835 178.988 21.3344C180.12 23.3832 181.781 25.4475 184.158 26.1252C184.684 26.2743 185.23 26.3492 185.778 26.3474C189.812 26.3296 190.441 21.6389 190.441 21.6389" stroke="black" stroke-miterlimit="10"/>
<path d="M195.932 14.8086V14.8219C195.745 16.2552 195.424 17.6686 194.973 19.0438C194.433 20.6844 194.306 22.4287 194.601 24.1279L195.228 27.7077C195.257 27.8672 195.331 28.0156 195.441 28.1359C195.552 28.2561 195.694 28.3434 195.853 28.3876C203.811 30.6563 210.876 35.6626 214.986 42.891C220.113 51.917 221.048 62.7873 220.633 72.9199C220.269 81.7037 218.823 90.4365 216.77 98.9847C215.515 104.209 213.1 109.097 209.699 113.3C206.297 117.502 201.992 120.916 197.091 123.296C190.642 126.458 183.982 129.186 177.157 131.462C173.544 132.637 170.243 134.587 167.494 137.172C164.745 139.756 162.617 142.909 161.265 146.401L145.226 188.269C144.637 189.815 143.474 191.085 141.972 191.825L126.603 199.404C124.662 200.358 122.448 200.634 120.326 200.186C119.776 200.07 119.274 199.793 118.887 199.393C118.499 198.992 118.243 198.487 118.152 197.941C118.061 197.396 118.139 196.837 118.377 196.336C118.615 195.835 119 195.416 119.484 195.133L127.334 190.549L138.128 136.526C138.888 131.707 140.702 127.106 143.445 123.04C146.188 118.974 149.796 115.54 154.02 112.973C154.583 112.636 155.17 112.339 155.776 112.084L179.176 102.109" stroke="black" stroke-miterlimit="10"/>
<path d="M189.5 0.781056C188.249 0.488366 186.954 0.423593 185.679 0.589959C185.627 0.591092 185.575 0.595558 185.523 0.603291" stroke="black" stroke-miterlimit="10"/>
<path d="M183.832 27.2031C183.832 27.2031 179.692 36.5202 187.096 36.9802C193.739 37.3979 196.177 28.5364 196.177 28.5364" stroke="black" stroke-miterlimit="10"/>
<path d="M195.412 17.615C195.46 17.4439 196.173 14.9174 194.81 13.3264C193.447 11.7354 191.6 14.4641 191.415 14.7374C191.777 10.82 189.004 7.8491 189.004 7.8491C190.027 11.3177 188.71 13.5841 188.71 13.5841C183.647 14.7485 180.86 13.8619 178.884 13.4797C178.69 12.2465 178.714 10.9896 178.957 9.76452C178.198 10.8123 177.76 12.0514 177.696 13.3353H177.664C176.912 13.1391 176.199 12.8197 175.555 12.3909L174.552 11.7243C176.069 4.14271 181.36 -0.63028 189.541 0.769618C197.721 2.16952 197.949 11.4044 197.949 11.4044L196.127 12.0998C196.127 12.0998 196.143 15.1485 195.412 17.615Z" stroke="black" stroke-miterlimit="10"/>
<path d="M180.177 17.2188V20.9052C180.177 20.95 180.188 20.9943 180.209 21.034C180.23 21.074 180.26 21.1085 180.297 21.1349C180.334 21.1614 180.377 21.1787 180.422 21.186C180.467 21.1931 180.513 21.1898 180.557 21.1762C180.852 21.0802 181.124 20.9243 181.354 20.7185" stroke="black" stroke-miterlimit="10"/>
<path d="M177.931 20.0172C179.116 19.5639 179.555 17.8858 178.913 16.269C178.271 14.6522 176.79 13.7092 175.606 14.1625C174.421 14.6158 173.982 16.2939 174.624 17.9107C175.266 19.5274 176.747 20.4705 177.931 20.0172Z" stroke="black" stroke-miterlimit="10"/>
<path d="M185.059 21.0709C186.243 20.6176 186.683 18.9395 186.041 17.3227C185.399 15.706 183.918 14.7629 182.734 15.2162C181.549 15.6695 181.109 17.3476 181.751 18.9644C182.393 20.5812 183.874 21.5242 185.059 21.0709Z" stroke="black" stroke-miterlimit="10"/>
<path d="M179.181 17.4103C179.181 17.4103 179.882 16.6237 181.354 17.5459" stroke="black" stroke-miterlimit="10"/>
<path d="M183.5 25.8926C183.5 25.8926 184.009 27.5858 185.507 33.0743" stroke="black" stroke-miterlimit="10"/>
<path d="M145.985 186.292L154.812 181.614C155.318 181.345 155.749 180.959 156.069 180.489C156.388 180.018 156.585 179.479 156.643 178.917C158.11 164.773 157.662 155.832 157.662 155.832" stroke="black" stroke-miterlimit="10"/>
<path d="M137.972 113.758L104 90.4512" stroke="black" stroke-miterlimit="10"/>
<path d="M136.048 120.18L104 98.1904" stroke="black" stroke-miterlimit="10"/>
<path d="M266 75.8801V94.9609C266 95.8357 265.741 96.6919 265.255 97.4252C264.769 98.1584 264.076 98.7375 263.261 99.0917L239.155 109.571L231.786 120.566C231.596 120.838 231.323 121.045 231.006 121.155C230.689 121.265 230.344 121.273 230.022 121.179C229.7 121.084 229.417 120.891 229.214 120.628C229.011 120.364 228.899 120.045 228.893 119.715V114.035L226.421 115.108C225.871 115.344 225.271 115.443 224.673 115.394C224.075 115.346 223.498 115.152 222.995 114.831C222.492 114.51 222.079 114.071 221.791 113.554C221.504 113.037 221.352 112.457 221.349 111.869V95.9342C221.349 93.9468 221.941 92.0027 223.053 90.3415C224.164 88.68 225.745 87.3739 227.603 86.5837L260.731 72.4848C261.304 72.2403 261.931 72.1397 262.554 72.1923C263.177 72.2448 263.777 72.4485 264.299 72.7854C264.822 73.1223 265.251 73.5816 265.548 74.1217C265.845 74.6619 266 75.2661 266 75.8801Z" fill="#A8A8A8"/>
<path d="M236.43 100.819C237.617 98.5702 237.296 96.0939 235.712 95.288C234.128 94.482 231.882 95.6517 230.694 97.9005C229.507 100.149 229.828 102.626 231.412 103.432C232.996 104.238 235.242 103.068 236.43 100.819Z" fill="white"/>
<path d="M246.725 96.493C247.912 94.244 247.591 91.7677 246.007 90.9618C244.423 90.1559 242.177 91.3256 240.989 93.5743C239.802 95.8232 240.123 98.2995 241.707 99.1054C243.291 99.9114 245.537 98.7417 246.725 96.493Z" fill="white"/>
<path d="M256.673 91.8218C257.861 89.5731 257.539 87.0966 255.956 86.2909C254.372 85.485 252.125 86.6547 250.938 88.9034C249.751 91.1521 250.072 93.6286 251.656 94.4345C253.239 95.2403 255.486 94.0706 256.673 91.8218Z" fill="white"/>
</svg>
