<svg width="36" height="36" viewBox="0 0 36 36" fill="none" xmlns="http://www.w3.org/2000/svg">
<rect width="36" height="36" rx="10" fill="#F2F2F2"/>
<path d="M11.0219 15.5888L10.2063 18H8.125L11.6163 8.625H14.0237L17.5 18H15.3119L14.4962 15.5888H11.0219ZM14.0856 14.2088L12.8125 10.4175H12.7206L11.4475 14.2088H14.0856Z" fill="#2071BE"/>
<path d="M4.5 8.25C4.5 7.38805 4.84241 6.5614 5.4519 5.9519C6.0614 5.34241 6.88805 5 7.75 5H19.125C19.987 5 20.8136 5.34241 21.4231 5.9519C22.0326 6.5614 22.375 7.38805 22.375 8.25V13.125H27.25C28.112 13.125 28.9386 13.4674 29.5481 14.0769C30.1576 14.6864 30.5 15.513 30.5 16.375V27.75C30.5 28.612 30.1576 29.4386 29.5481 30.0481C28.9386 30.6576 28.112 31 27.25 31H15.875C15.013 31 14.1864 30.6576 13.5769 30.0481C12.9674 29.4386 12.625 28.612 12.625 27.75V22.875H7.75C6.88805 22.875 6.0614 22.5326 5.4519 21.9231C4.84241 21.3136 4.5 20.487 4.5 19.625V8.25ZM7.75 6.625C7.31902 6.625 6.9057 6.7962 6.60095 7.10095C6.2962 7.4057 6.125 7.81902 6.125 8.25V19.625C6.125 20.056 6.2962 20.4693 6.60095 20.774C6.9057 21.0788 7.31902 21.25 7.75 21.25H19.125C19.556 21.25 19.9693 21.0788 20.274 20.774C20.5788 20.4693 20.75 20.056 20.75 19.625V8.25C20.75 7.81902 20.5788 7.4057 20.274 7.10095C19.9693 6.7962 19.556 6.625 19.125 6.625H7.75ZM19.3492 22.8669C19.6629 23.356 20.0025 23.8142 20.373 24.2416C19.1575 25.176 17.6544 25.8682 15.875 26.3411C16.1643 26.6938 16.6079 27.373 16.7769 27.75C18.605 27.1666 20.1569 26.3785 21.4666 25.3222C22.7292 26.4029 24.2925 27.2154 26.2279 27.7142C26.444 27.3015 26.9006 26.6206 27.25 26.268C25.4219 25.8569 23.9074 25.1402 22.6675 24.1815C23.7741 22.9676 24.6532 21.4986 25.3016 19.7014H27.25V18H22.375V19.7014H23.6181C23.1014 21.0729 22.4156 22.2136 21.5511 23.1626C21.3123 22.9082 21.0872 22.6414 20.8768 22.3631C20.4182 22.6571 19.8927 22.8304 19.3492 22.8669Z" fill="#2071BE"/>
</svg>
